<svg width="43" height="27" viewBox="0 0 43 27" fill="none" xmlns="http://www.w3.org/2000/svg">
<rect x="0.0168457" y="0.126465" width="42.7543" height="26.5091" rx="1.215" fill="#2E77BC"/>
<path fill-rule="evenodd" clip-rule="evenodd" d="M12.0225 10.9377L11.6016 9.90953L11.1829 10.9377H12.0225ZM21.2975 10.5282C21.213 10.5797 21.113 10.5814 20.9933 10.5814H20.246V10.0085H21.0034C21.1105 10.0085 21.2225 10.0134 21.2951 10.055C21.3749 10.0927 21.4243 10.1726 21.4243 10.283C21.4243 10.3958 21.3772 10.4865 21.2975 10.5282ZM26.6283 10.9377L26.2026 9.90953L25.7794 10.9377H26.6283ZM16.6914 12.0506H16.0608L16.0584 10.0306L15.1664 12.0506H14.6263L13.7321 10.0288V12.0506H12.481L12.2447 11.4753H10.9639L10.7252 12.0506H10.057L11.1586 9.47139H12.0724L13.1187 11.9134V9.47139H14.1226L14.9276 11.2211L15.6671 9.47139H16.6913V12.0506H16.6914ZM19.2046 12.0506H17.1497V9.47139H19.2046V10.0085H17.7649V10.4734H19.1701V11.0021H17.7649V11.5172H19.2046V12.0506ZM22.1018 10.166C22.1018 10.5773 21.8281 10.7897 21.6684 10.8535C21.803 10.9048 21.918 10.9956 21.9728 11.0707C22.0595 11.199 22.0745 11.3136 22.0745 11.5439V12.0506H21.4541L21.4518 11.7254C21.4518 11.5702 21.4666 11.347 21.3547 11.2229C21.2649 11.1322 21.1278 11.1125 20.9064 11.1125H20.2461V12.0506H19.6309V9.47139H21.0458C21.3601 9.47139 21.5918 9.47979 21.7906 9.59493C21.9852 9.71022 22.1018 9.87834 22.1018 10.166ZM22.4587 9.47139H23.0863V12.0506H22.4587V9.47139ZM30.3677 12.0506H29.4961L28.3301 10.1148V12.0506H27.0774L26.838 11.4753H25.5602L25.328 12.0506H24.6081C24.3092 12.0506 23.9307 11.9843 23.7163 11.7653C23.5001 11.5464 23.3875 11.2498 23.3875 10.7807C23.3875 10.3982 23.4548 10.0485 23.7192 9.77215C23.918 9.5663 24.2294 9.47139 24.6533 9.47139H25.2489V10.024H24.6658C24.4414 10.024 24.3147 10.0575 24.1926 10.1769C24.0876 10.2854 24.0157 10.4907 24.0157 10.7611C24.0157 11.0374 24.0705 11.2367 24.1849 11.3668C24.2796 11.4689 24.4516 11.4998 24.6135 11.4998H24.8897L25.7568 9.47147H26.6784L27.7199 11.9111V9.47147H28.6564L29.7376 11.2678V9.47147H30.3677V12.0506ZM10.0499 12.5573H11.1009L11.3378 11.9843H11.8684L12.1047 12.5573H14.1727V12.1192L14.3573 12.5591H15.4308L15.6154 12.1127V12.5573H20.7545L20.752 11.6168H20.8515C20.9211 11.6192 20.9415 11.6257 20.9415 11.741V12.5573H23.5995V12.3383C23.8138 12.4534 24.1473 12.5573 24.5861 12.5573H25.7042L25.9435 11.9843H26.4741L26.7082 12.5573H28.8629V12.013L29.1893 12.5573H30.9161V8.95996H29.2071V9.3848L28.9678 8.95996H27.2143V9.3848L26.9945 8.95996H24.626C24.2294 8.95996 23.881 9.01543 23.5995 9.17001V8.95996H21.9648V9.17001C21.7858 9.01068 21.5416 8.95996 21.2701 8.95996H15.2986L14.8978 9.88907L14.4865 8.95996H12.6055V9.3848L12.3988 8.95996H10.7947L10.0498 10.6703V12.5573H10.0499Z" fill="white"/>
<path fill-rule="evenodd" clip-rule="evenodd" d="M31.7574 14.3938H30.6363C30.5244 14.3938 30.4501 14.398 30.3874 14.4404C30.3225 14.4822 30.2975 14.5441 30.2975 14.626C30.2975 14.7234 30.3523 14.7895 30.432 14.8182C30.4969 14.8409 30.5667 14.8474 30.669 14.8474L31.0024 14.8563C31.3388 14.8647 31.5635 14.9226 31.7003 15.064C31.7253 15.0837 31.7402 15.1058 31.7574 15.1278V14.3938ZM31.7574 16.0947C31.608 16.3137 31.3169 16.4246 30.9227 16.4246H29.7347V15.8715H30.9178C31.0352 15.8715 31.1174 15.856 31.1668 15.8075C31.2096 15.7677 31.2396 15.7097 31.2396 15.6393C31.2396 15.5641 31.2096 15.5045 31.1643 15.4687C31.1198 15.4293 31.0548 15.4114 30.9476 15.4114C30.3701 15.3918 29.6496 15.4293 29.6496 14.6129C29.6496 14.2387 29.8866 13.8448 30.5321 13.8448H31.7574V13.3315H30.619C30.2754 13.3315 30.0258 13.4141 29.8491 13.5422V13.3315H28.1652C27.896 13.3315 27.5799 13.3984 27.4305 13.5422V13.3315H24.4235V13.5422C24.1842 13.3693 23.7804 13.3315 23.5941 13.3315H21.6108V13.5422C21.4215 13.3585 21.0004 13.3315 20.7438 13.3315H18.524L18.0161 13.8825L17.5404 13.3315H14.2246V16.9313H17.478L18.0013 16.3717L18.4945 16.9313L20.4998 16.9331V16.0864H20.697C20.963 16.0904 21.2769 16.0797 21.5538 15.9598V16.9313H23.2078V15.993H23.2877C23.3895 15.993 23.3995 15.9973 23.3995 16.0993V16.9311H28.4243C28.7434 16.9311 29.0769 16.8493 29.2615 16.7008V16.9311H30.8554C31.187 16.9311 31.511 16.8845 31.7574 16.7652V16.0947ZM29.3037 15.064C29.4235 15.1882 29.4877 15.345 29.4877 15.6106C29.4877 16.1656 29.1418 16.4246 28.5214 16.4246H27.3234V15.8715H28.5166C28.6333 15.8715 28.716 15.856 28.7678 15.8075C28.8101 15.7677 28.8405 15.7097 28.8405 15.6393C28.8405 15.5641 28.8077 15.5044 28.7655 15.4687C28.7184 15.4293 28.6535 15.4114 28.5464 15.4114C27.9711 15.3918 27.2507 15.4293 27.2507 14.6129C27.2507 14.2387 27.4854 13.8448 28.1301 13.8448H29.3634V14.394H28.235C28.1231 14.394 28.0504 14.3981 27.9885 14.4405C27.9212 14.4823 27.8962 14.5443 27.8962 14.6261C27.8962 14.7235 27.9534 14.7897 28.0308 14.8184C28.0957 14.841 28.1653 14.8475 28.2702 14.8475L28.6013 14.8565C28.9352 14.8647 29.1644 14.9226 29.3037 15.064ZM23.7533 14.9046C23.6709 14.9536 23.5692 14.9579 23.4495 14.9579H22.7023V14.3784H23.4596C23.5692 14.3784 23.6788 14.3808 23.7533 14.425C23.833 14.4667 23.8806 14.5467 23.8806 14.657C23.8806 14.7675 23.833 14.8563 23.7533 14.9046ZM24.1248 15.2257C24.2616 15.2764 24.3736 15.3671 24.426 15.4423C24.5129 15.5682 24.5255 15.6858 24.5279 15.9133V16.4246H23.9104V16.1018C23.9104 15.9467 23.9253 15.7168 23.811 15.5969C23.7211 15.5044 23.5841 15.4824 23.3597 15.4824H22.7024V16.4246H22.0843V13.8448H23.5044C23.8158 13.8448 24.0426 13.8585 24.2445 13.9666C24.4387 14.0841 24.5608 14.2451 24.5608 14.5394C24.5607 14.9512 24.2867 15.1613 24.1248 15.2257ZM24.9018 13.8448H26.9548V14.3784H25.5143V14.8474H26.9196V15.3737H25.5143V15.887L26.9548 15.8893V16.4246H24.9018V13.8448ZM20.7517 15.0353H19.9567V14.3784H20.7588C20.9809 14.3784 21.135 14.4691 21.135 14.6947C21.135 14.9179 20.988 15.0353 20.7517 15.0353ZM19.3441 16.19L18.3997 15.1391L19.3441 14.1217V16.19ZM16.9052 15.887H15.3928V15.3737H16.7432V14.8474H15.3928V14.3784H16.935L17.6078 15.1302L16.9052 15.887ZM21.7954 14.6947C21.7954 15.4114 21.2619 15.5593 20.7242 15.5593H19.9567V16.4246H18.7611L18.0037 15.5707L17.2166 16.4246H14.78V13.8448H17.254L18.0108 14.6904L18.7932 13.8448H20.7588C21.247 13.8448 21.7954 13.9802 21.7954 14.6947Z" fill="white"/>
</svg>
