<svg width="12" height="7" viewBox="0 0 12 7" fill="none" xmlns="http://www.w3.org/2000/svg">
<path fill-rule="evenodd" clip-rule="evenodd" d="M6.83203 6.14529L11.1802 2.19329C11.6066 1.80568 11.6066 1.17731 11.1802 0.790706C10.7548 0.403098 10.0634 0.403098 9.63699 0.790706L6 4.09536L2.36301 0.790706C1.93655 0.403098 1.2452 0.403098 0.819844 0.790706C0.393385 1.17731 0.393385 1.80568 0.819844 2.19329L5.16797 6.14529C5.18665 6.16627 5.19434 6.19224 5.21633 6.21122C5.43175 6.40802 5.71643 6.50293 6 6.49993C6.28357 6.50293 6.56825 6.40802 6.78367 6.21122C6.80566 6.19224 6.81335 6.16627 6.83203 6.14529Z" fill="black" stroke="white" stroke-width="0.5"/>
</svg>
