<svg width="13" height="7" viewBox="0 0 13 7" fill="none" xmlns="http://www.w3.org/2000/svg">
<path fill-rule="evenodd" clip-rule="evenodd" d="M5.58387 0.85471L1.31481 4.80671C0.896105 5.19432 0.896105 5.82269 1.31481 6.20929C1.73244 6.5969 2.41121 6.5969 2.82992 6.20929L6.40078 2.90464L9.97164 6.20929C10.3903 6.5969 11.0691 6.5969 11.4868 6.20929C11.9055 5.82269 11.9055 5.19432 11.4868 4.80671L7.21769 0.85471C7.19934 0.833731 7.19179 0.807758 7.17021 0.788777C6.95869 0.591976 6.6792 0.497072 6.40078 0.500069C6.12236 0.497072 5.84287 0.591976 5.63136 0.788777C5.60977 0.807758 5.60222 0.833731 5.58387 0.85471Z" fill="black" stroke="white" stroke-width="0.5"/>
</svg>
