<svg width="43" height="27" viewBox="0 0 43 27" fill="none" xmlns="http://www.w3.org/2000/svg">
<rect x="0.0168457" y="0.12793" width="42.7543" height="26.7523" rx="1.215" fill="#184977"/>
<path fill-rule="evenodd" clip-rule="evenodd" d="M31.4972 13.9675H31.5175C31.5401 13.9675 31.5507 13.9499 31.5507 13.9215C31.5507 13.8923 31.534 13.8824 31.5164 13.8824H31.4972V13.9675ZM31.438 14.0633V14.0542C31.4593 14.0513 31.4635 14.0522 31.4635 14.0381V13.9037C31.4635 13.8846 31.4615 13.8783 31.4386 13.8794V13.87H31.5282C31.5587 13.87 31.5872 13.8855 31.5872 13.9182C31.5872 13.9456 31.5701 13.9653 31.5459 13.9731L31.5744 14.0149C31.5881 14.0334 31.6031 14.0513 31.6131 14.0575V14.0633H31.5791C31.5629 14.0633 31.5487 14.0275 31.5164 13.9798H31.4972V14.0399C31.4972 14.0522 31.5012 14.0513 31.5223 14.0542V14.0633H31.438ZM31.5249 14.1148C31.6031 14.1148 31.6632 14.0457 31.6632 13.9675C31.6632 13.8894 31.6043 13.8195 31.5249 13.8195C31.4461 13.8195 31.3863 13.8894 31.3863 13.9675C31.3863 14.0457 31.4461 14.1148 31.5249 14.1148ZM31.5249 13.7856C31.6248 13.7856 31.6997 13.8657 31.6997 13.9675C31.6997 14.0695 31.6248 14.1485 31.5249 14.1485C31.4253 14.1485 31.3501 14.0695 31.3501 13.9675C31.3501 13.8657 31.4253 13.7856 31.5249 13.7856Z" fill="white"/>
<path fill-rule="evenodd" clip-rule="evenodd" d="M30.9635 14.8896C30.9635 14.96 31.0103 14.981 31.0639 14.9882C31.1328 14.9936 31.2081 14.9936 31.2857 14.9847C31.3559 14.9763 31.4167 14.9338 31.4465 14.8896C31.4733 14.8509 31.4881 14.8019 31.4988 14.763H31.5474C31.5288 14.8634 31.5054 14.9619 31.4851 15.0619C31.3374 15.0619 31.1895 15.0551 31.0423 15.0551C30.8944 15.0551 30.7466 15.0619 30.5989 15.0619V15.0089H30.622C30.6829 15.0089 30.7484 15.0005 30.7484 14.8912V13.9883C30.7484 13.8966 30.6829 13.8882 30.622 13.8882H30.5989V13.835C30.6878 13.835 30.7754 13.842 30.8641 13.842C30.9498 13.842 31.0337 13.835 31.1195 13.835V13.8882H31.0772C31.0136 13.8882 30.9635 13.89 30.9635 13.9831V14.8896Z" fill="white"/>
<path fill-rule="evenodd" clip-rule="evenodd" d="M29.8907 14.0321H29.8874L29.7312 14.5295H30.0456L29.8907 14.0321ZM29.6455 14.8108C29.6292 14.8703 29.6089 14.9164 29.6089 14.9475C29.6089 15.0006 29.6799 15.009 29.7345 15.009H29.7533V15.0619C29.6861 15.0584 29.6174 15.0552 29.5502 15.0552C29.4891 15.0552 29.429 15.0584 29.3691 15.0619V15.009H29.3784C29.4441 15.009 29.4999 14.9686 29.5247 14.895L29.7937 14.0887C29.8154 14.0234 29.8455 13.9356 29.8555 13.8703C29.9091 13.8512 29.9763 13.816 30.0083 13.7949C30.0134 13.793 30.0168 13.7915 30.0219 13.7915C30.0266 13.7915 30.0296 13.7915 30.0334 13.7967C30.0386 13.8107 30.0433 13.8266 30.0488 13.8407L30.3575 14.7599C30.3772 14.8212 30.3978 14.8865 30.4195 14.9393C30.4396 14.9883 30.4751 15.009 30.5305 15.009H30.5405V15.0619C30.465 15.0584 30.3892 15.0552 30.3089 15.0552C30.2266 15.0552 30.1424 15.0584 30.0569 15.0619V15.009H30.0755C30.114 15.009 30.1798 15.0024 30.1798 14.9584C30.1798 14.9353 30.1644 14.8881 30.1458 14.8318L30.0806 14.6277H29.6998L29.6455 14.8108Z" fill="white"/>
<path fill-rule="evenodd" clip-rule="evenodd" d="M29.1142 14.7158L29.1175 14.7121V14.0532C29.1175 13.9092 29.0219 13.8882 28.9709 13.8882H28.9349V13.835C29.0133 13.835 29.0907 13.842 29.1694 13.842C29.2386 13.842 29.3073 13.835 29.3759 13.835V13.8882H29.3508C29.2801 13.8882 29.2012 13.902 29.2012 14.111V14.911C29.2012 14.9725 29.2032 15.0338 29.2113 15.0882H29.1474L28.2832 14.0795V14.8035C28.2832 14.9568 28.3116 15.0089 28.4411 15.0089H28.4695V15.0619C28.3973 15.0619 28.3254 15.0551 28.253 15.0551C28.1775 15.0551 28.1001 15.0619 28.0244 15.0619V15.0089H28.0481C28.1643 15.0089 28.1988 14.9269 28.1988 14.7861V14.046C28.1988 13.9475 28.1221 13.8882 28.0461 13.8882H28.0244V13.835C28.0884 13.835 28.1537 13.842 28.2176 13.842C28.2678 13.842 28.3164 13.835 28.3668 13.835L29.1142 14.7158Z" fill="white"/>
<path fill-rule="evenodd" clip-rule="evenodd" d="M27.365 15.0111C27.6912 15.0111 27.7474 14.7106 27.7474 14.4545C27.7474 14.1975 27.6153 13.8865 27.3366 13.8865C27.043 13.8865 26.9557 14.1607 26.9557 14.3958C26.9557 14.7106 27.0934 15.0111 27.365 15.0111ZM27.3399 13.8091C27.6976 13.8091 27.9829 14.0411 27.9829 14.4155C27.9829 14.8198 27.706 15.0884 27.3485 15.0884C26.9922 15.0884 26.7209 14.8357 26.7209 14.4574C26.7209 14.0923 26.9909 13.8091 27.3399 13.8091Z" fill="white"/>
<path fill-rule="evenodd" clip-rule="evenodd" d="M26.1819 15.0089C26.2427 15.0089 26.3062 15.0005 26.3062 14.9088V13.9883C26.3062 13.8966 26.2427 13.8882 26.1819 13.8882H26.1584V13.835C26.2239 13.835 26.3245 13.842 26.4067 13.842C26.4906 13.842 26.5914 13.835 26.6706 13.835V13.8882H26.6472C26.5864 13.8882 26.5222 13.8966 26.5222 13.9883V14.9088C26.5222 15.0005 26.5864 15.0089 26.6472 15.0089H26.6706V15.0619C26.5897 15.0619 26.4893 15.0551 26.4052 15.0551C26.3228 15.0551 26.2239 15.0619 26.1584 15.0619V15.0089H26.1819Z" fill="white"/>
<path fill-rule="evenodd" clip-rule="evenodd" d="M25.135 13.9231C25.0089 13.9231 25.0042 13.9548 24.9789 14.083H24.9282C24.9351 14.0338 24.9437 13.9847 24.9486 13.9335C24.9555 13.8844 24.9587 13.835 24.9587 13.7843H24.999C25.0124 13.837 25.0545 13.835 25.0996 13.835H25.9657C26.0109 13.835 26.0527 13.8335 26.0562 13.7808L26.0965 13.788C26.09 13.835 26.0836 13.8826 26.0782 13.9303C26.0742 13.9775 26.0742 14.0252 26.0742 14.0724L26.0243 14.0922C26.0213 14.0269 26.0127 13.9231 25.9002 13.9231H25.625V14.858C25.625 14.9937 25.6839 15.009 25.7643 15.009H25.796V15.0619C25.7308 15.0619 25.6133 15.0552 25.5227 15.0552C25.4219 15.0552 25.3042 15.0619 25.2386 15.0619V15.009H25.2706C25.3633 15.009 25.4103 15.0006 25.4103 14.862V13.9231H25.135Z" fill="white"/>
<path fill-rule="evenodd" clip-rule="evenodd" d="M24.4116 14.0321H24.4082L24.252 14.5295H24.5658L24.4116 14.0321ZM24.1667 14.8108C24.1497 14.8703 24.1292 14.9164 24.1292 14.9475C24.1292 15.0006 24.2003 15.009 24.2555 15.009H24.2741V15.0619C24.2066 15.0584 24.1379 15.0552 24.0707 15.0552C24.0102 15.0552 23.95 15.0584 23.8896 15.0619V15.009H23.8995C23.9649 15.009 24.0206 14.9686 24.0452 14.895L24.3141 14.0887C24.3357 14.0234 24.3664 13.9356 24.3762 13.8703C24.4299 13.8512 24.4971 13.816 24.5291 13.7949C24.5342 13.793 24.5368 13.7915 24.5424 13.7915C24.5472 13.7915 24.5506 13.7915 24.5542 13.7967C24.5592 13.8107 24.5641 13.8266 24.5695 13.8407L24.8782 14.7599C24.8981 14.8212 24.9183 14.8865 24.94 14.9393C24.9604 14.9883 24.9957 15.009 25.051 15.009H25.061V15.0619C24.9856 15.0584 24.9098 15.0552 24.8296 15.0552C24.7474 15.0552 24.6634 15.0584 24.578 15.0619V15.009H24.5964C24.6347 15.009 24.7003 15.0024 24.7003 14.9584C24.7003 14.9353 24.6853 14.8881 24.6663 14.8318L24.6011 14.6277H24.2199L24.1667 14.8108Z" fill="white"/>
<path fill-rule="evenodd" clip-rule="evenodd" d="M23.6344 14.7158L23.6377 14.7121V14.0532C23.6377 13.9092 23.542 13.8882 23.4919 13.8882H23.4549V13.835C23.5341 13.835 23.6107 13.842 23.6899 13.842C23.7589 13.842 23.8276 13.835 23.8966 13.835V13.8882H23.8715C23.8009 13.8882 23.722 13.902 23.722 14.111V14.911C23.722 14.9725 23.7235 15.0338 23.7317 15.0882H23.6683L22.8039 14.0795V14.8035C22.8039 14.9568 22.8325 15.0089 22.9618 15.0089H22.9903V15.0619C22.918 15.0619 22.8456 15.0551 22.7736 15.0551C22.698 15.0551 22.6208 15.0619 22.5454 15.0619V15.0089H22.5684C22.6845 15.0089 22.7197 14.9269 22.7197 14.7861V14.046C22.7197 13.9475 22.6425 13.8882 22.5671 13.8882H22.5454V13.835C22.6088 13.835 22.6749 13.842 22.7383 13.842C22.7885 13.842 22.8371 13.835 22.8877 13.835L23.6344 14.7158Z" fill="white"/>
<path fill-rule="evenodd" clip-rule="evenodd" d="M21.7131 14.4292H21.7951C21.963 14.4292 22.0534 14.3626 22.0534 14.155C22.0534 13.999 21.9578 13.8984 21.8084 13.8984C21.7577 13.8984 21.7362 13.9041 21.7131 13.9055V14.4292ZM21.4982 14.0214C21.4982 13.8929 21.431 13.8882 21.379 13.8882H21.3484V13.835C21.4021 13.835 21.5063 13.842 21.6089 13.842C21.7092 13.842 21.7901 13.835 21.8793 13.835C22.0902 13.835 22.2784 13.8948 22.2784 14.1446C22.2784 14.3027 22.1779 14.3991 22.0454 14.4543L22.3324 14.9034C22.3793 14.9781 22.4125 14.9987 22.495 15.0089V15.0619C22.4396 15.0619 22.386 15.0551 22.3306 15.0551C22.2784 15.0551 22.2246 15.0619 22.1728 15.0619C22.0436 14.8846 21.9326 14.6947 21.8235 14.4923H21.7131V14.8685C21.7131 15.0042 21.7732 15.0089 21.8504 15.0089H21.881V15.0619C21.785 15.0619 21.6876 15.0551 21.5919 15.0551C21.5114 15.0551 21.4326 15.0619 21.3484 15.0619V15.0089H21.379C21.4408 15.0089 21.4982 14.9795 21.4982 14.9143V14.0214Z" fill="white"/>
<path fill-rule="evenodd" clip-rule="evenodd" d="M20.3167 15.0089H20.3401C20.4004 15.0089 20.4641 15.0005 20.4641 14.9088V13.9883C20.4641 13.8966 20.4004 13.8882 20.3401 13.8882H20.3167V13.835C20.4186 13.835 20.5939 13.842 20.7345 13.842C20.8757 13.842 21.0499 13.835 21.1637 13.835C21.1611 13.9107 21.1626 14.0268 21.1677 14.1041L21.1169 14.1182C21.109 14.0041 21.0887 13.9127 20.9124 13.9127H20.6797V14.3727H20.8787C20.9796 14.3727 21.0018 14.3135 21.0114 14.2185H21.0615C21.0583 14.2872 21.0567 14.3554 21.0567 14.4239C21.0567 14.4911 21.0583 14.5575 21.0615 14.6244L21.0114 14.6348C21.0018 14.5294 20.9966 14.4609 20.8805 14.4609H20.6797V14.8702C20.6797 14.9847 20.7767 14.9847 20.8839 14.9847C21.0855 14.9847 21.1741 14.9706 21.2245 14.7702L21.2715 14.7825C21.2497 14.876 21.2296 14.9685 21.2145 15.0619C21.1072 15.0619 20.914 15.0551 20.7629 15.0551C20.6119 15.0551 20.4121 15.0619 20.3167 15.0619V15.0089Z" fill="white"/>
<path fill-rule="evenodd" clip-rule="evenodd" d="M19.3009 13.9231C19.175 13.9231 19.1704 13.9548 19.1451 14.083H19.0947C19.1016 14.0338 19.1098 13.9847 19.1151 13.9335C19.1217 13.8844 19.125 13.835 19.125 13.7843H19.1655C19.1789 13.837 19.2208 13.835 19.2662 13.835H20.1322C20.1774 13.835 20.2195 13.8335 20.2228 13.7808L20.2628 13.788C20.2567 13.835 20.2498 13.8826 20.2447 13.9303C20.2412 13.9775 20.2412 14.0252 20.2412 14.0724L20.1911 14.0922C20.1877 14.0269 20.1792 13.9231 20.0667 13.9231H19.7915V14.858C19.7915 14.9937 19.8506 15.009 19.9308 15.009H19.9626V15.0619C19.8973 15.0619 19.7795 15.0552 19.689 15.0552C19.5886 15.0552 19.4708 15.0619 19.4052 15.0619V15.009H19.4371C19.5298 15.009 19.5764 15.0006 19.5764 14.862V13.9231H19.3009Z" fill="white"/>
<path fill-rule="evenodd" clip-rule="evenodd" d="M18.7879 14.7158L18.7913 14.7121V14.0532C18.7913 13.9092 18.6955 13.8882 18.645 13.8882H18.6082V13.835C18.687 13.835 18.7645 13.842 18.8433 13.842C18.912 13.842 18.9811 13.835 19.0495 13.835V13.8882H19.0246C18.954 13.8882 18.8749 13.902 18.8749 14.111V14.911C18.8749 14.9725 18.877 15.0338 18.885 15.0882H18.8213L17.957 14.0795V14.8035C17.957 14.9568 17.9852 15.0089 18.1146 15.0089H18.1431V15.0619C18.0711 15.0619 17.9987 15.0551 17.9265 15.0551C17.8515 15.0551 17.7739 15.0619 17.6985 15.0619V15.0089H17.7219C17.8378 15.0089 17.8732 14.9269 17.8732 14.7861V14.046C17.8732 13.9475 17.7956 13.8882 17.7203 13.8882H17.6985V13.835C17.762 13.835 17.8277 13.842 17.8914 13.842C17.9417 13.842 17.9907 13.835 18.0409 13.835L18.7879 14.7158Z" fill="white"/>
<path fill-rule="evenodd" clip-rule="evenodd" d="M17.1228 15.0089H17.1464C17.2066 15.0089 17.2706 15.0005 17.2706 14.9088V13.9883C17.2706 13.8966 17.2066 13.8882 17.1464 13.8882H17.1228V13.835C17.1884 13.835 17.289 13.842 17.3715 13.842C17.4552 13.842 17.5559 13.835 17.6348 13.835V13.8882H17.6112C17.551 13.8882 17.487 13.8966 17.487 13.9883V14.9088C17.487 15.0005 17.551 15.0089 17.6112 15.0089H17.6348V15.0619C17.5543 15.0619 17.4533 15.0551 17.3697 15.0551C17.2873 15.0551 17.1884 15.0619 17.1228 15.0619V15.0089Z" fill="white"/>
<path fill-rule="evenodd" clip-rule="evenodd" d="M30.431 12.7664C30.431 12.8892 30.5418 13.0957 30.7489 13.0957C31.0792 13.0957 31.218 12.7564 31.218 12.4689C31.218 12.1203 30.9648 11.8297 30.7245 11.8297C30.6096 11.8297 30.5143 11.9073 30.431 11.982V12.7664ZM30.431 11.8876C30.5543 11.7782 30.7212 11.6555 30.8907 11.6555C31.2486 11.6555 31.4645 11.982 31.4645 12.3335C31.4645 12.7564 31.1685 13.1798 30.7268 13.1798C30.4986 13.1798 30.3787 13.1023 30.2983 13.0671L30.2057 13.141L30.1413 13.1057C30.1685 12.9152 30.184 12.7274 30.184 12.5307V11.1422C30.184 10.9319 30.1381 10.9253 30.0208 10.8899V10.8382C30.1445 10.7962 30.2735 10.7384 30.3386 10.6991C30.3721 10.68 30.397 10.6636 30.4067 10.6636C30.4251 10.6636 30.431 10.683 30.431 10.7091V11.8876Z" fill="white"/>
<path fill-rule="evenodd" clip-rule="evenodd" d="M29.8173 12.9532C29.8173 13.0115 29.851 13.0145 29.9036 13.0145C29.9405 13.0145 29.9871 13.0115 30.0272 13.0115V13.0796C29.8942 13.0924 29.6414 13.1601 29.5824 13.1794L29.5672 13.1699V12.9086C29.3824 13.0667 29.24 13.1794 29.0209 13.1794C28.8544 13.1794 28.6819 13.0667 28.6819 12.7956V11.9684C28.6819 11.8843 28.6694 11.8033 28.4971 11.7875V11.7262C28.6084 11.7225 28.8544 11.7036 28.8948 11.7036C28.9291 11.7036 28.9291 11.7262 28.9291 11.797V12.6303C28.9291 12.727 28.9291 13.0049 29.1974 13.0049C29.302 13.0049 29.4408 12.9208 29.5703 12.8084V11.939C29.5703 11.8746 29.4222 11.8393 29.3115 11.8067V11.7485C29.589 11.7291 29.762 11.7036 29.7926 11.7036C29.8173 11.7036 29.8173 11.7262 29.8173 11.7617V12.9532Z" fill="white"/>
<path fill-rule="evenodd" clip-rule="evenodd" d="M27.8364 13.0473H27.8953C27.9817 13.0473 28.0435 13.0473 28.0435 12.9404V11.1422C28.0435 10.9319 27.9971 10.9253 27.8799 10.8899V10.8382C28.0031 10.7962 28.1327 10.7384 28.1977 10.6991C28.2314 10.68 28.2563 10.6636 28.2654 10.6636C28.2841 10.6636 28.29 10.683 28.29 10.7091V12.9404C28.29 13.0473 28.3581 13.0473 28.4445 13.0473H28.4969V13.1315C28.3925 13.1315 28.2841 13.1252 28.1728 13.1252C28.0621 13.1252 27.9511 13.1284 27.8364 13.1315V13.0473Z" fill="white"/>
<path fill-rule="evenodd" clip-rule="evenodd" d="M27.7253 11.4613H27.6483C27.5897 11.0836 27.3335 10.9318 26.9885 10.9318C26.6334 10.9318 26.118 11.1804 26.118 11.9552C26.118 12.6081 26.5629 13.0764 27.0376 13.0764C27.3429 13.0764 27.596 12.857 27.6578 12.5176L27.7284 12.5368L27.6578 13.0085C27.5282 13.0927 27.1792 13.1796 26.9756 13.1796C26.2539 13.1796 25.7979 12.6918 25.7979 11.9653C25.7979 11.3032 26.3618 10.8281 26.9667 10.8281C27.2167 10.8281 27.457 10.9123 27.6946 10.9994L27.7253 11.4613Z" fill="white"/>
<path fill-rule="evenodd" clip-rule="evenodd" d="M24.0546 12.6822C24.095 12.8952 24.2184 13.0763 24.4436 13.0763C24.6254 13.0763 24.6929 12.9598 24.6929 12.8469C24.6929 12.466 24.0209 12.5882 24.0209 12.0685C24.0209 11.8873 24.1599 11.6553 24.4993 11.6553C24.5978 11.6553 24.7304 11.6843 24.8506 11.7487L24.8724 12.078H24.8014C24.7706 11.8747 24.6625 11.7582 24.465 11.7582C24.3415 11.7582 24.2247 11.8328 24.2247 11.9715C24.2247 12.3498 24.9401 12.2332 24.9401 12.7403C24.9401 12.9533 24.7766 13.1795 24.4096 13.1795C24.2859 13.1795 24.141 13.1344 24.0331 13.07L23.9993 12.6983L24.0546 12.6822Z" fill="white"/>
<path fill-rule="evenodd" clip-rule="evenodd" d="M22.8669 13.047H22.9506C23.0368 13.047 23.098 13.047 23.098 12.9401V12.033C23.098 11.9328 22.9843 11.9133 22.9378 11.8873V11.8394C23.1631 11.739 23.2867 11.6553 23.3146 11.6553C23.3328 11.6553 23.342 11.6645 23.342 11.6971V11.9877H23.3486C23.4255 11.8618 23.5551 11.6553 23.7432 11.6553C23.8203 11.6553 23.9189 11.7097 23.9189 11.8262C23.9189 11.9133 23.8606 11.9912 23.7741 11.9912C23.6781 11.9912 23.6781 11.9133 23.5704 11.9133C23.5179 11.9133 23.3453 11.9877 23.3453 12.1817V12.9401C23.3453 13.047 23.4068 13.047 23.4932 13.047H23.6658V13.1312C23.4962 13.1281 23.3669 13.1249 23.2342 13.1249C23.1077 13.1249 22.9782 13.1281 22.8669 13.1312V13.047Z" fill="white"/>
<path fill-rule="evenodd" clip-rule="evenodd" d="M22.4447 12.1362C22.5216 12.1362 22.5306 12.0943 22.5306 12.0556C22.5306 11.8907 22.4351 11.7582 22.2623 11.7582C22.0744 11.7582 21.9448 11.9035 21.9077 12.1362H22.4447ZM21.8988 12.2398C21.8922 12.2689 21.8922 12.3171 21.8988 12.427C21.9168 12.734 22.1053 12.9858 22.3519 12.9858C22.5216 12.9858 22.6546 12.8889 22.7684 12.7693L22.8116 12.8145C22.6697 13.0116 22.494 13.1795 22.2412 13.1795C21.7504 13.1795 21.6519 12.6822 21.6519 12.4755C21.6519 11.8424 22.059 11.6553 22.2746 11.6553C22.5246 11.6553 22.7933 11.8197 22.7961 12.1619C22.7961 12.1817 22.7961 12.2009 22.7933 12.2203L22.7652 12.2398H21.8988Z" fill="white"/>
<path fill-rule="evenodd" clip-rule="evenodd" d="M20.3189 12.0845C20.3189 11.9652 20.285 11.9328 20.1401 11.8718V11.81C20.2725 11.7649 20.3991 11.7226 20.5471 11.6553C20.5565 11.6553 20.5654 11.6616 20.5654 11.687V11.8976C20.7416 11.7649 20.8929 11.6553 21.0995 11.6553C21.3618 11.6553 21.4542 11.8552 21.4542 12.1072V12.9401C21.4542 13.047 21.5223 13.047 21.6083 13.047H21.664V13.1312C21.5557 13.1312 21.4479 13.1249 21.3372 13.1249C21.2259 13.1249 21.1149 13.1281 21.0039 13.1312V13.047H21.0594C21.1458 13.047 21.2072 13.047 21.2072 12.9401V12.1041C21.2072 11.9196 21.0995 11.8295 20.9237 11.8295C20.8248 11.8295 20.6677 11.9133 20.5654 11.9847V12.9401C20.5654 13.047 20.6338 13.047 20.7202 13.047H20.7757V13.1312C20.6677 13.1312 20.5594 13.1249 20.4481 13.1249C20.3375 13.1249 20.2262 13.1281 20.1152 13.1312V13.047H20.1712C20.2574 13.047 20.3189 13.047 20.3189 12.9401V12.0845Z" fill="white"/>
<path fill-rule="evenodd" clip-rule="evenodd" d="M19.6962 11.1576C19.6157 11.1576 19.5448 11.0802 19.5448 10.9963C19.5448 10.9153 19.6187 10.8408 19.6962 10.8408C19.7762 10.8408 19.8474 10.9088 19.8474 10.9963C19.8474 11.0834 19.7793 11.1576 19.6962 11.1576ZM19.366 13.047H19.4244C19.511 13.047 19.5725 13.047 19.5725 12.9401V12.0653C19.5725 11.923 19.5265 11.9035 19.412 11.8394V11.7876C19.5572 11.742 19.7298 11.6813 19.7422 11.671C19.764 11.6584 19.7822 11.6552 19.7979 11.6552C19.8131 11.6552 19.8194 11.6744 19.8194 11.7001V12.9401C19.8194 13.047 19.8873 13.047 19.9735 13.047H20.0259V13.1311C19.921 13.1311 19.8131 13.1249 19.7021 13.1249C19.5911 13.1249 19.4801 13.1281 19.366 13.1311V13.047Z" fill="white"/>
<path fill-rule="evenodd" clip-rule="evenodd" d="M17.7123 12.75C17.7123 12.9989 17.8822 13.0277 18.0332 13.0277C18.6997 13.0277 18.9183 12.5015 18.9183 12.0203C18.9183 11.4164 18.5482 10.9803 17.9529 10.9803C17.8264 10.9803 17.7681 10.9897 17.7123 10.9932V12.75ZM17.41 11.2352C17.41 10.9447 17.2652 10.9639 17.1265 10.9605V10.877C17.2466 10.8831 17.3699 10.8831 17.4904 10.8831C17.6199 10.8831 17.7958 10.877 18.0241 10.877C18.8228 10.877 19.2578 11.4353 19.2578 12.0074C19.2578 12.3273 19.079 13.1314 17.987 13.1314C17.83 13.1314 17.6846 13.1251 17.5399 13.1251C17.4009 13.1251 17.2652 13.1283 17.1265 13.1314V13.0472C17.3111 13.0277 17.4009 13.0214 17.41 12.8019V11.2352Z" fill="white"/>
<path fill-rule="evenodd" clip-rule="evenodd" d="M14.3508 12.9789C14.3495 12.2197 13.8962 11.5723 13.2577 11.3159V14.6419C13.8962 14.3852 14.3495 13.7384 14.3508 12.9789ZM12.0392 14.6413V11.3162C11.4012 11.5733 10.9487 12.22 10.9471 12.9789C10.9487 13.7378 11.4012 14.3844 12.0392 14.6413ZM12.6487 10.1675C11.1659 10.1681 9.96468 11.4263 9.96439 12.9789C9.96468 14.5313 11.1659 15.7893 12.6487 15.7896C14.1317 15.7893 15.3333 14.5313 15.3338 12.9789C15.3333 11.4263 14.1317 10.1681 12.6487 10.1675ZM12.6423 16.0549C11.0196 16.0631 9.68408 14.6865 9.68408 13.0109C9.68408 11.1799 11.0196 9.91327 12.6423 9.91357H13.4027C15.006 9.91327 16.4697 11.1793 16.4697 13.0109C16.4697 14.6859 15.006 16.0549 13.4027 16.0549H12.6423Z" fill="white"/>
</svg>
