<svg width="43" height="27" viewBox="0 0 43 27" fill="none" xmlns="http://www.w3.org/2000/svg">
<rect x="0.0168457" y="0.12793" width="42.7543" height="26.7523" rx="1.215" fill="#F9F9F9"/>
<path fill-rule="evenodd" clip-rule="evenodd" d="M42.7753 15.4722C42.7753 18.1027 42.7753 23.2987 42.7753 25.6546C42.7753 26.3256 42.2403 26.8667 41.5692 26.8667C36.4682 26.8667 16.693 26.8667 11.5696 26.8667C24.8382 24.1419 34.421 20.4263 42.7753 15.4722Z" fill="#F58220"/>
<path fill-rule="evenodd" clip-rule="evenodd" d="M32.1404 11.1999C32.1404 11.1383 32.1008 11.104 32.0278 11.104H31.9316V11.4153H32.0024V11.2942L32.0858 11.4153H32.1747L32.0748 11.2867C32.117 11.275 32.1404 11.2431 32.1404 11.1999ZM32.0156 11.2419H32.0024V11.1617H32.0165C32.0514 11.1617 32.0693 11.1746 32.0693 11.2011C32.0693 11.2281 32.0506 11.2419 32.0156 11.2419Z" fill="#231F20"/>
<path fill-rule="evenodd" clip-rule="evenodd" d="M32.043 10.9854C31.8968 10.9854 31.78 11.1085 31.78 11.2623C31.78 11.4155 31.8974 11.5389 32.043 11.5389C32.1864 11.5389 32.3034 11.4142 32.3034 11.2623C32.3034 11.1103 32.1864 10.9854 32.043 10.9854ZM32.0427 11.489C31.926 11.489 31.8317 11.3885 31.8317 11.2629C31.8317 11.1361 31.9254 11.0356 32.0427 11.0356C32.1569 11.0356 32.2503 11.1379 32.2503 11.2629C32.2503 11.3873 32.1569 11.489 32.0427 11.489Z" fill="#231F20"/>
<path fill-rule="evenodd" clip-rule="evenodd" d="M31.6712 11.9951C31.6712 11.3211 31.2298 10.9336 30.4589 10.9336H29.467V14.5294H30.1355V13.0844H30.2231L31.1472 14.5294H31.9695L30.8898 13.0145C31.3942 12.9067 31.6712 12.5455 31.6712 11.9951ZM30.3299 12.5884H30.1355V11.4991H30.341C30.7575 11.4991 30.9841 11.6832 30.9841 12.0327C30.9841 12.3939 30.7575 12.5884 30.3299 12.5884Z" fill="#231F20"/>
<path fill-rule="evenodd" clip-rule="evenodd" d="M27.1304 14.5294H29.026V13.9204H27.7982V12.9493H28.9793V12.3409H27.7982V11.5426H29.026V10.9336H27.1304V14.5294Z" fill="#231F20"/>
<path fill-rule="evenodd" clip-rule="evenodd" d="M25.1772 13.3491L24.2624 10.9336H23.533L24.9875 14.6216H25.3468L26.8268 10.9336H26.1026L25.1772 13.3491Z" fill="#231F20"/>
<g filter="url(#filter0_i)">
<path fill-rule="evenodd" clip-rule="evenodd" d="M20.0161 12.7142C20.0161 13.7996 20.7987 14.6105 21.8428 14.6105C22.8613 14.6105 23.6652 13.7889 23.6652 12.7354C23.6652 11.6889 22.8665 10.8667 21.8428 10.8667C20.834 10.8667 20.0161 11.6935 20.0161 12.7142Z" fill="#F48027"/>
</g>
<path fill-rule="evenodd" clip-rule="evenodd" d="M17.116 12.7336C17.116 13.7914 17.9076 14.6106 18.9246 14.6106C19.2127 14.6106 19.4591 14.5514 19.7626 14.4004V13.5755C19.4947 13.8561 19.2585 13.9685 18.9552 13.9685C18.2824 13.9685 17.8043 13.4563 17.8043 12.7281C17.8043 12.0389 18.2973 11.4939 18.9246 11.4939C19.2428 11.4939 19.4845 11.6131 19.7626 11.8983V11.0733C19.4699 10.9171 19.2276 10.853 18.9403 10.853C17.9277 10.853 17.116 11.689 17.116 12.7336Z" fill="#231F20"/>
<path fill-rule="evenodd" clip-rule="evenodd" d="M15.9195 12.3129C15.5181 12.1573 15.4005 12.0543 15.4005 11.8604C15.4005 11.6344 15.61 11.4619 15.8987 11.4619C16.099 11.4619 16.2633 11.5483 16.4385 11.7523L16.7873 11.2735C16.4995 11.0085 16.1556 10.874 15.7802 10.874C15.1745 10.874 14.7119 11.3161 14.7119 11.9036C14.7119 12.4002 14.9276 12.6532 15.5543 12.8903C15.8164 12.9871 15.9498 13.0518 16.0167 13.0953C16.1504 13.1875 16.2175 13.3161 16.2175 13.4669C16.2175 13.7588 15.9962 13.9739 15.6979 13.9739C15.3791 13.9739 15.1226 13.8075 14.9684 13.4944L14.5376 13.9319C14.8453 14.4058 15.2151 14.6162 15.7242 14.6162C16.4177 14.6162 16.9055 14.1304 16.9055 13.4353C16.9055 12.864 16.6802 12.6048 15.9195 12.3129Z" fill="#231F20"/>
<path fill-rule="evenodd" clip-rule="evenodd" d="M13.6177 10.9336H14.2855V14.5294H13.6177V10.9336Z" fill="#231F20"/>
<path fill-rule="evenodd" clip-rule="evenodd" d="M11.4702 10.9336H10.4883V14.5294H11.4656C11.9837 14.5294 12.3588 14.4001 12.6878 14.1149C13.0777 13.7743 13.3092 13.2621 13.3092 12.7333C13.3092 11.6719 12.5535 10.9336 11.4702 10.9336ZM12.2517 13.6343C12.0403 13.8343 11.7686 13.9204 11.3365 13.9204H11.1567V11.5426H11.3365C11.7686 11.5426 12.0298 11.6235 12.2517 11.8333C12.4828 12.0493 12.6203 12.3832 12.6203 12.7278C12.6203 13.0737 12.4828 13.4195 12.2517 13.6343Z" fill="#231F20"/>
<defs>
<filter id="filter0_i" x="20.0161" y="10.8667" width="3.64905" height="3.74376" filterUnits="userSpaceOnUse" color-interpolation-filters="sRGB">
<feFlood flood-opacity="0" result="BackgroundImageFix"/>
<feBlend mode="normal" in="SourceGraphic" in2="BackgroundImageFix" result="shape"/>
<feColorMatrix in="SourceAlpha" type="matrix" values="0 0 0 0 0 0 0 0 0 0 0 0 0 0 0 0 0 0 127 0" result="hardAlpha"/>
<feOffset/>
<feGaussianBlur stdDeviation="0.5"/>
<feComposite in2="hardAlpha" operator="arithmetic" k2="-1" k3="1"/>
<feColorMatrix type="matrix" values="0 0 0 0 0 0 0 0 0 0 0 0 0 0 0 0 0 0 0.5 0"/>
<feBlend mode="normal" in2="shape" result="effect1_innerShadow"/>
</filter>
</defs>
</svg>
