<svg width="219" height="200" viewBox="0 0 219 662" fill="none" xmlns="http://www.w3.org/2000/svg">
    <path fill-rule="evenodd" clip-rule="evenodd"
          d="M145.147 209.988L148.607 192.157V178.783L151.202 177C151.202 179.675 156.394 191.265 159.854 193.94C163.315 196.615 163.315 201.073 163.315 201.073L164.181 206.422C164.181 206.422 163.315 209.988 165.047 211.772C166.776 213.554 167.642 213.554 167.642 213.554C167.642 213.554 167.642 216.229 165.911 218.012C164.181 219.796 165.047 222.47 165.911 225.145C166.776 227.82 165.047 231.385 165.047 231.385H165.911C165.911 231.385 165.911 237.627 165.047 241.193C164.181 244.759 158.125 251 158.125 251L153.799 243.868H148.607L143.416 239.41L145.147 209.988ZM143.68 92.7545C145.266 94.4527 143.68 100.396 143.68 98.6983C143.68 97 140.509 92.7545 140.509 92.7545C140.509 92.7545 142.095 91.0569 143.68 92.7545ZM57.2325 213.571C55.6578 216.285 53.2965 219 53.2965 219V200C53.2965 200 56.4451 203.619 57.2325 206.333C58.0198 209.048 58.8071 210.857 57.2325 213.571ZM22.3918 357.724V364C22.3918 364 20.6512 364 17.1707 360.414C13.6894 356.828 11.9488 355.931 12.8191 354.138C13.6894 352.345 12.8191 350.551 12.8191 350.551L14.5597 353.241C14.5597 353.241 14.5597 355.034 16.3004 355.931C18.0403 356.828 18.9113 358.621 19.7809 355.931C20.6512 353.241 19.7809 351.448 19.7809 347.862C19.7809 344.276 19.7809 338 22.3918 338C24.3377 338 22.3918 357.724 22.3918 357.724ZM16.8745 316.143L22.2876 308L20.483 327C20.483 327 17.776 322.477 16.8745 321.572C15.9722 320.667 16.8745 316.143 16.8745 316.143ZM211.971 640.711C207.656 632.728 207.656 628.293 207.656 623.858C207.656 619.423 205.067 607.891 205.067 607.891C205.067 607.891 205.93 599.908 206.793 591.925C207.656 583.941 208.519 555.556 205.067 555.556C201.616 555.556 191.261 555.556 191.261 555.556C191.261 555.556 180.043 499.673 176.591 491.69C173.139 483.706 167.962 470.401 168.824 466.853C169.688 463.305 167.099 455.321 167.099 455.321L164.51 447.338L162.785 434.92L161.059 426.936C161.059 426.936 161.922 411.857 161.059 407.422C160.196 402.987 160.196 402.987 160.196 402.987L163.647 401.213L158.471 350.651L156.745 320.493L154.157 315.17L152.43 312.51V307.187L151.567 300.978L148.116 297.43L150.705 291.221L148.116 285.012L149.842 279.689V269.045C149.842 269.045 158.471 271.706 164.51 269.045C170.551 266.384 172.276 259.287 172.276 259.287L185.22 237.999L190.398 230.015V226.468C190.398 226.468 191.261 216.71 192.124 213.162C192.987 209.614 192.124 204.291 192.124 204.291L189.535 200.744L188.672 197.195L185.22 193.647L177.454 164.376C177.454 164.376 176.591 145.748 170.551 135.103C164.51 124.459 164.51 114.701 157.608 112.927C150.705 111.153 142.939 106.718 142.939 106.718C142.939 106.718 148.979 102.283 147.253 96.9609C145.528 91.6383 145.528 88.9777 140.351 85.4293C135.173 81.8817 132.585 82.768 131.722 74.7848C130.859 66.8017 129.134 46.3998 129.134 46.3998C129.134 46.3998 126.545 43.7392 125.682 36.6424C124.82 29.5463 128.271 33.0947 122.231 24.2244C116.191 15.3534 112.74 12.6929 111.014 10.0315C111.014 10.0315 100.66 0.274158 96.3456 2.04836C93.7569 0.274158 85.9913 -1.49931 81.6768 2.04836C77.3629 5.59677 56.6543 29.5463 57.5173 37.5295C58.3802 45.5127 60.9689 65.0275 58.3802 68.5759C55.7914 72.1235 48.8888 80.9946 50.6146 84.5422C52.3405 88.0906 51.4776 92.5254 49.7517 95.1867C48.599 96.9646 46.6754 99.9305 46.2979 102.496C46.1102 103.772 46.3036 104.948 47.163 105.831C47.163 105.831 47.163 103.17 48.8888 100.509C50.6146 97.848 52.3405 96.9609 52.3405 96.9609C52.3405 96.9609 57.5173 100.509 56.6543 103.17C55.7914 105.831 54.9292 110.266 54.9292 110.266L43.712 115.589C43.712 115.589 29.9061 120.91 28.1802 130.668C26.4544 140.425 26.4544 162.601 25.5922 169.697C24.7293 176.793 20.4147 208.727 19.5518 216.71C18.6896 224.693 16.1008 256.627 16.1008 256.627H17.826C17.826 256.627 11.7863 301.865 9.19751 307.187C6.60948 312.51 5.74656 321.38 5.74656 321.38C5.74656 321.38 4.88364 333.798 3.15781 338.234C1.4327 342.668 -1.15677 347.991 0.56906 351.539C2.29489 355.087 2.29489 358.635 2.29489 360.41C2.29489 362.183 4.02073 365.731 4.02073 365.731L17.826 373.715L21.2776 372.828C21.2776 372.828 21.2776 379.924 20.4147 387.02C19.5518 394.117 19.5518 398.551 19.5518 398.551L38.5345 401.213C38.5345 401.213 42.8491 426.936 43.712 433.146C44.5749 439.355 46.3008 453.547 45.4371 466.853C44.5749 480.159 41.9862 509.43 43.712 518.301C45.4371 527.172 53.2034 560.878 53.2034 560.878L50.6146 563.54C50.6146 563.54 54.0656 588.376 55.7914 597.247C57.5173 606.117 60.9689 614.1 60.106 619.423C59.2431 624.745 59.2431 624.745 60.106 630.067C60.9689 635.389 61.8318 641.598 60.106 644.259C58.3802 646.921 56.6543 658.452 60.9689 660.227C65.2828 662 86.8543 662 86.8543 662C86.8543 662 91.1688 657.565 90.3052 652.243C89.443 646.921 85.9914 641.598 86.8543 635.389C87.7172 629.18 85.9913 614.987 85.9913 614.987L82.5404 602.569C82.5404 602.569 83.4026 577.732 82.5404 570.636C81.6768 563.54 79.0887 558.217 77.3629 558.217C75.6371 558.217 76.5 554.669 77.3629 545.799C78.2258 536.928 76.5 493.464 77.3629 482.819C78.2258 472.175 77.3629 463.305 79.0887 457.983C80.8146 452.661 83.4026 419.84 79.9517 402.987C95.4827 403.874 116.191 402.987 116.191 402.987C116.191 402.987 123.957 418.066 124.82 428.711C125.682 439.355 128.271 465.079 136.9 472.175C140.351 484.594 147.253 518.3 151.567 527.172C155.882 536.042 170.551 567.087 170.551 567.087V580.393C170.551 580.393 176.591 593.698 176.591 598.134C176.591 602.569 171.414 606.117 173.139 613.213C174.865 620.309 175.728 624.745 176.591 631.841C177.454 638.937 176.591 652.243 176.591 652.243H186.946V646.034C186.946 646.034 189.535 648.694 190.398 653.13C191.261 657.564 192.124 662 198.164 662C204.204 662 218.004 662 218.867 658.452C219.73 654.904 216.278 648.694 211.971 640.711Z"
          fill="#E8E8E8"/>
</svg>
