<svg width="68" height="59" viewBox="0 0 68 59" fill="none" xmlns="http://www.w3.org/2000/svg">
<path fill-rule="evenodd" clip-rule="evenodd" d="M22.8597 45.0152L21.3446 34.58L21.3418 34.3333L22.4856 33.0486L22.5371 32.7423C22.6672 31.9617 22.0655 31.2543 21.2741 31.2543H19.0352C18.2438 31.2543 17.6447 31.9644 17.7748 32.745L17.8263 33.0486L19.1084 34.3712L17.4333 44.9098L14.3922 30.829L14.2458 30.2815L13.8474 30.5173C12.3567 31.4036 10.7304 32.0324 9.03092 32.3821C5.70516 33.0624 2.62067 33.8701 1.52594 37.578C0.943426 39.5514 0.775043 46.1627 0.65356 50.9326L0.653559 50.9326C0.619032 52.2882 0.588293 53.4952 0.552912 54.4046C0.514966 55.299 1.13837 56.0824 2.01658 56.2476C4.56713 56.7301 9.41609 57.6327 15.7068 57.9444L15.7142 57.9447L15.7143 57.9447C15.7852 57.9473 15.8584 57.95 15.929 57.9552C16.2605 57.9709 16.5946 57.984 16.9263 57.9971L16.9644 57.9986C17.0271 58.0013 17.0897 58.0033 17.152 58.0053L17.1522 58.0053L17.1523 58.0053C17.2166 58.0073 17.2806 58.0094 17.3439 58.0121L17.3446 58.0122L17.3454 58.0122C17.5974 58.0194 17.8495 58.0266 18.1015 58.0319C18.1336 58.033 18.1656 58.0338 18.1977 58.0338H18.1978C18.2384 58.0338 18.2791 58.0338 18.3197 58.0365C18.3714 58.0365 18.4231 58.039 18.4772 58.0416L18.485 58.042C18.5071 58.042 18.5284 58.0427 18.5494 58.0433H18.5494C18.5697 58.044 18.5897 58.0447 18.6097 58.0447H18.7913H18.7914H18.7915C19.1682 58.0501 19.5449 58.0555 19.9216 58.0555C20.1882 58.0555 20.4572 58.0555 20.7263 58.0512C28.2331 57.9708 35.1397 56.7941 38.2934 56.2341C39.1797 56.0769 39.8166 55.2908 39.7787 54.391C39.7422 53.4689 39.7107 52.2429 39.6753 50.8671C39.5527 46.1041 39.384 39.5456 38.8057 37.5832C37.7052 33.8563 34.5773 33.0595 31.2438 32.3764C29.5064 32.0186 27.8422 31.3681 26.3243 30.452L25.9584 30.2271L22.8597 45.0152ZM20.7263 58.0512C20.4588 58.054 20.1905 58.0555 19.9216 58.0555C20.2089 58.0555 20.4989 58.0528 20.7889 58.0501L20.7263 58.0512ZM18.0245 58.0287C18.0368 58.0292 18.049 58.0298 18.0613 58.0303C18.0747 58.0309 18.0881 58.0314 18.1015 58.0319L18.1977 58.0338C18.1679 58.0325 18.1381 58.0318 18.1083 58.0311C18.0804 58.0305 18.0524 58.0298 18.0245 58.0287ZM18.0245 58.0287C18.0227 58.0286 18.0208 58.0285 18.019 58.0284L18.0188 58.0284C18.0207 58.0285 18.0226 58.0286 18.0245 58.0287ZM22.2959 58.0171C22.2658 58.0185 22.235 58.0191 22.2038 58.0198C22.1733 58.0205 22.1425 58.0212 22.1116 58.0225C22.1428 58.0212 22.1733 58.0205 22.2038 58.0198C22.2343 58.0191 22.2648 58.0185 22.2959 58.0171Z" fill="black"/>
<path fill-rule="evenodd" clip-rule="evenodd" d="M28.8295 12.8204C28.8343 12.8747 28.839 12.9289 28.8445 12.9831L28.8443 12.9831C29.8933 13.0942 30.7064 13.9805 30.7118 15.062V18.2658C30.7118 19.3798 29.839 20.2878 28.7386 20.3474C28.4784 20.5724 28.0691 20.9139 27.5432 21.2961C27.3454 21.7975 27.1285 22.2854 26.8846 22.757C26.4807 23.5431 26.0119 24.2912 25.4752 25.004C23.9438 27.0423 22.0302 28.1563 20.076 28.1563H19.9676C17.9889 28.1156 16.097 26.9285 14.6415 24.8143C14.1889 24.1557 13.7769 23.4672 13.4137 22.7571C13.0044 21.9656 12.6575 21.1552 12.3756 20.3502H11.7169C10.565 20.3502 9.62988 19.4151 9.62988 18.2631V15.0594C9.62988 14.0457 10.3536 13.2 11.3131 13.0103C11.3022 11.8502 11.4649 10.7091 11.7224 9.57884C11.7291 9.55174 11.7352 9.52464 11.7413 9.49753C11.7474 9.47043 11.7535 9.44332 11.7603 9.41621C11.7523 9.4142 11.7457 9.4107 11.7385 9.40681C11.7359 9.40546 11.7333 9.40406 11.7305 9.40266C11.6622 9.5202 11.593 9.63682 11.5201 9.75959C11.4686 9.84632 11.4153 9.93611 11.3592 10.0315C11.4594 9.70621 11.5896 9.43245 11.7576 9.17496C11.8172 9.08281 11.866 8.9771 11.8985 8.8741C11.9724 8.63791 12.0395 8.40172 12.1141 8.13918C12.1217 8.11248 12.1293 8.08551 12.1371 8.05824C11.82 8.33739 11.6031 8.64367 11.4324 8.9879C11.6085 8.23435 12.0314 7.67331 12.7469 7.35347C12.8195 7.3194 12.8962 7.29504 12.9729 7.27066C13.0365 7.25044 13.1002 7.23021 13.1616 7.2044C13.2294 7.17729 13.3053 7.13663 13.3432 7.07972C13.3871 7.00601 13.4238 6.92687 13.4605 6.84753C13.4873 6.78973 13.5141 6.73183 13.5438 6.67586C13.579 6.6076 13.6204 6.54251 13.6622 6.47695C13.6752 6.4566 13.6882 6.4362 13.701 6.41565C13.7037 6.41023 13.7064 6.40752 13.7091 6.40481C13.9657 6.20527 14.2118 5.99251 14.4579 5.77983C15.0074 5.30495 15.5563 4.83051 16.219 4.50477C16.7015 4.26625 17.2056 4.08464 17.7261 3.95183C17.6346 3.98992 17.5422 4.02667 17.4496 4.06349C17.2787 4.13148 17.1071 4.19972 16.94 4.27708C16.6744 4.40176 16.4115 4.53729 16.1621 4.69449C15.9821 4.80651 15.811 4.93475 15.6399 5.0629C15.5792 5.1084 15.5185 5.15389 15.4574 5.19864L15.49 5.24743C15.5299 5.22183 15.5714 5.19816 15.6128 5.17453C15.681 5.13561 15.7491 5.09678 15.8098 5.04956C16.3194 4.63486 16.9102 4.39634 17.5337 4.22558C18.2871 4.01958 19.0569 3.93014 19.8321 3.88948C19.9539 3.88316 20.0756 3.88329 20.1979 3.88342C20.2852 3.88351 20.3729 3.88361 20.461 3.88135C19.3415 4.00604 18.2411 4.22015 17.2138 4.70803C17.3615 4.69573 17.5091 4.68474 17.6566 4.67375C18.0291 4.64601 18.4007 4.61834 18.7696 4.5698C18.9791 4.54302 19.1849 4.49337 19.3908 4.44371C19.5392 4.4079 19.6877 4.37208 19.8376 4.34483C20.48 4.23099 21.1278 4.18762 21.8162 4.17136C21.5811 4.21505 21.3501 4.25809 21.1219 4.30061C20.6846 4.38208 20.2578 4.46162 19.8322 4.53998V4.57793C19.8764 4.58154 19.921 4.58455 19.9656 4.58757C20.0547 4.59359 20.1439 4.59961 20.2306 4.61045C20.5288 4.65111 20.8242 4.63756 21.1251 4.61045C22.0005 4.53185 22.8652 4.62401 23.7298 4.74869C23.7488 4.75411 23.7678 4.76495 23.7813 4.8029H21.7945V4.84084C21.8614 4.85756 21.9282 4.87401 21.995 4.89045C22.1448 4.92733 22.2942 4.9641 22.4423 5.00348C22.4866 5.01554 22.5315 5.02665 22.5766 5.03779C22.6835 5.06421 22.7912 5.09083 22.8923 5.13086C23.2018 5.2559 23.5268 5.28483 23.8521 5.31378C23.9569 5.32311 24.0618 5.33244 24.1662 5.34499C25.3127 5.4805 26.3942 5.80579 27.3618 6.46171C27.3971 6.48611 27.4323 6.5105 27.4648 6.54303C26.5189 6.09309 25.5349 5.76512 24.4806 5.6811C24.508 5.69284 24.5357 5.70494 24.5637 5.71713C24.6132 5.73871 24.6635 5.7606 24.7137 5.78138C24.8351 5.83357 24.9574 5.88535 25.0798 5.93719C25.269 6.01728 25.4586 6.09755 25.6461 6.17982C26.3482 6.49151 26.855 7.02008 27.2778 7.64619C27.3429 7.74376 27.4215 7.83321 27.5055 7.91181C27.9121 8.2913 28.1804 8.75476 28.3891 9.26161C28.4379 9.38087 28.4813 9.50013 28.5165 9.6221C28.3735 9.39842 28.2316 9.17368 28.0894 8.94854C28.0025 8.81087 27.9155 8.67304 27.828 8.53521C27.8145 8.54064 27.8009 8.54877 27.7874 8.5569C27.7942 8.57316 27.8003 8.5901 27.8064 8.60704C27.8125 8.62398 27.8186 8.64092 27.8253 8.65718C27.9825 9.09086 28.1397 9.52183 28.2969 9.95279C28.343 10.0775 28.3945 10.2022 28.4514 10.3214C28.7279 10.8987 28.8824 11.5167 29.0125 12.1428C29.0206 12.1754 29.0261 12.2079 29.0206 12.2458C28.9979 12.1776 28.9758 12.1091 28.9537 12.0405C28.9126 11.9127 28.8713 11.7846 28.8255 11.6577C28.7726 11.5092 28.7152 11.3624 28.6543 11.2067C28.634 11.1548 28.6134 11.102 28.5924 11.0478C28.616 11.2148 28.6406 11.3791 28.6649 11.5415C28.7216 11.9197 28.7767 12.2881 28.8146 12.6578C28.8201 12.712 28.8248 12.7662 28.8295 12.8204ZM19.9975 26.6495C21.4937 26.6766 23.0088 25.7713 24.2692 24.0962L24.269 24.0963C24.597 23.6599 24.8979 23.2045 25.177 22.7275C24.2663 23.1774 23.2499 23.5569 22.1955 23.7303C22.0357 24.2074 21.5857 24.5543 21.0544 24.5543H20.2522C19.5881 24.5543 19.0487 24.0149 19.0487 23.3508C19.0487 22.6868 19.5881 22.1474 20.2522 22.1474H21.0544C21.5071 22.1474 21.9001 22.3995 22.1061 22.7681C23.521 22.5214 24.8762 21.8573 25.9658 21.1797C26.085 20.9033 26.1962 20.6241 26.2992 20.3368C26.7599 19.0548 27.0662 17.667 27.2207 16.1546C27.2288 16.076 27.2342 15.9975 27.2397 15.9189L27.2397 15.9188L27.2396 15.9181C27.2071 15.734 27.1746 15.5499 27.1421 15.3631C27.115 15.2222 27.0933 15.0813 27.0716 14.9404L27.0716 14.9403C27.0689 14.9295 27.0689 14.9213 27.0689 14.9132C27.0378 14.7032 27.0086 14.4932 26.9795 14.2833C26.9504 14.0731 26.9212 13.863 26.89 13.6528C26.8765 13.5661 26.844 13.4767 26.806 13.3954C26.7139 13.1948 26.5892 13.1704 26.4347 13.3249C26.3785 13.3811 26.3297 13.4429 26.29 13.4932C26.2818 13.5036 26.274 13.5135 26.2666 13.5228C26.2432 13.4497 26.2225 13.3743 26.2015 13.2982C26.1595 13.1455 26.1167 12.9899 26.0498 12.8451C25.8926 12.5118 25.6216 12.2976 25.2584 12.1865C25.0415 12.1214 24.822 12.1052 24.6024 12.0998C21.2932 13.7965 18.168 13.0809 16.1107 12.1648C15.7557 12.2082 15.4304 12.36 15.1729 12.631C14.9127 12.9075 14.8341 13.0918 14.7772 13.6285L14.7609 13.6041C14.7379 13.5733 14.7189 13.5453 14.7011 13.5191C14.6938 13.5083 14.6867 13.4978 14.6796 13.4875C14.4953 13.2273 14.311 13.2273 14.1511 13.4984C14.0698 13.6393 13.9911 13.7938 13.9505 13.9483C13.8594 14.2802 13.775 14.6135 13.6908 14.9462C13.6546 15.089 13.6185 15.2316 13.5819 15.374C13.5575 15.477 13.5331 15.5746 13.506 15.6749C13.48 15.7703 13.4485 15.8634 13.4171 15.9566C13.3895 16.0382 13.362 16.1199 13.3379 16.2034C13.3224 16.2501 13.3232 16.3022 13.324 16.3523C13.3242 16.3633 13.3244 16.3743 13.3244 16.385L13.324 16.3925C13.3214 16.4494 13.3189 16.5041 13.3189 16.5612C13.2864 17.854 13.506 19.1415 13.9695 20.3477C14.1836 20.9115 14.4465 21.4969 14.7555 22.0932C15.0781 22.7085 15.4494 23.3319 15.8776 23.9553C17.0702 25.6873 18.4959 26.617 19.9975 26.6495Z" fill="black"/>
<path fill-rule="evenodd" clip-rule="evenodd" d="M67.3544 41.0196L67.3544 41.0191L67.3544 41.019C67.1977 38.2043 66.8803 32.5065 66.4039 31.398C65.6368 29.6227 64.6448 28.0072 62.9183 27.0017C62.1431 26.5517 61.3381 26.1424 60.5141 25.7901C59.5083 25.3603 58.4955 24.948 57.4841 24.5364L57.4841 24.5364C57.239 24.4366 56.9941 24.3369 56.7493 24.237C58.1642 24.1936 59.5356 23.8575 60.5819 23.4618C60.5443 23.447 60.5111 23.4332 60.4802 23.4203C60.4374 23.4025 60.3989 23.3865 60.3596 23.3723C59.1806 22.9441 58.2102 22.2475 57.5706 21.1471C57.2778 20.6402 57.0746 20.1144 56.939 19.5723H57.5136C58.0476 19.5994 58.2807 19.3717 58.4704 18.9137C59.4353 16.599 59.682 14.2002 59.3757 11.7334C59.0125 8.81429 58.0991 6.12281 56.2858 3.84058C56.2343 3.76468 56.1828 3.68879 56.1286 3.6129C55.7112 3.04371 55.2368 2.55855 54.7164 2.14653C53.8329 1.31172 52.8462 0.604247 51.6075 0.433484C50.9706 0.346749 50.3254 0.28983 49.6777 0.260014L49.6777 0.260012C49.6235 0.251881 49.5693 0.24375 49.5151 0.23291H47.8617C47.8536 0.23562 47.8448 0.237653 47.836 0.239685C47.8272 0.241718 47.8183 0.243751 47.8102 0.246462C47.4579 0.257304 47.1082 0.273567 46.7586 0.297961C45.1892 0.409093 43.8774 1.11653 42.7389 2.10315C42.1481 2.54766 41.633 3.06535 41.2157 3.6725C39.2967 6.00892 38.348 8.77631 37.9848 11.7874C37.6813 14.2811 37.9279 16.7096 38.9688 19.019C39.069 19.2385 39.3482 19.534 39.5407 19.5286H40.492C39.9933 21.3392 38.901 22.6781 37.0254 23.3855C36.9935 23.3983 36.9635 23.4129 36.9161 23.436L36.9161 23.436C36.8829 23.4522 36.8411 23.4726 36.7841 23.4994C38.1123 23.9141 39.4133 24.2204 40.6682 24.242C40.2808 24.4034 39.8932 24.564 39.5057 24.7246L39.5057 24.7246C38.1745 25.2764 36.8443 25.8277 35.5238 26.405C34.1956 26.985 33.1304 27.8551 32.2983 28.9718C35.5021 29.6358 40.5166 30.8501 42.2076 36.5746C42.6819 38.1792 42.9096 41.364 43.0641 45.5083C43.9506 45.5602 44.7757 45.6044 45.496 45.643L45.4974 45.6431L45.499 45.6432C46.1318 45.6771 46.6835 45.7066 47.1244 45.7332C52.7784 45.6845 56.8415 45.5164 60.8715 44.9228C62.8556 44.6301 64.8207 44.237 66.7072 43.5269C67.4309 43.2559 67.4905 43.1502 67.4336 42.3695L67.4339 42.3696C67.415 42.1072 67.3885 41.6316 67.3544 41.0196ZM41.9478 9.27997C42.0264 8.56986 42.1592 7.90033 42.3272 7.27696C42.4438 6.84328 42.8368 6.52889 43.2867 6.54783H43.2976C44.8534 6.61559 46.4038 6.51259 47.9271 6.16836C48.4339 6.05452 48.9218 5.90816 49.388 5.73469C49.7079 5.97592 50.0385 6.20631 50.3801 6.43127L50.5772 6.56174C51.3967 7.10362 52.2217 7.64914 52.9469 8.30148C53.4925 8.7892 53.9725 9.3491 54.4534 9.91007C54.67 10.1627 54.8867 10.4156 55.1098 10.6623C55.299 9.57138 54.6946 8.83947 54.0873 8.10402C53.8421 7.80703 53.5964 7.50947 53.4022 7.18746C54.3509 7.78918 55.1369 8.49119 55.6709 9.36124L55.8742 9.72173C56.1832 10.337 56.3756 11.0282 56.4217 11.8223C56.4325 12.012 56.4352 12.1991 56.4325 12.3834C56.4379 12.6002 56.3268 13.2778 56.1886 14.0286C55.9988 15.0586 55.6871 16.0561 55.2643 16.9992C54.0582 17.7527 52.5511 18.4954 50.9818 18.7692C50.7541 18.3626 50.3204 18.0862 49.8217 18.0862H48.9381C48.2063 18.0862 47.61 18.6797 47.61 19.4143C47.61 20.1461 48.2036 20.7425 48.9381 20.7425H49.8217C50.4072 20.7425 50.9059 20.3603 51.0793 19.8317C52.2177 19.6447 53.3155 19.2409 54.3048 18.7557C53.4646 20.0432 52.3912 21.1788 51.1172 22.0841L51.117 22.0843L51.117 22.0843C51.0303 22.1466 50.9437 22.2089 50.8543 22.2684C49.35 23.293 48.0761 23.0707 46.4877 22.2332C40.0721 18.856 41.9477 9.2799 41.9477 9.2799L41.9478 9.27997ZM48.6944 34.9668L55.6033 28.9007L58.452 28.8898C58.452 28.8898 57.1754 26.1659 55.4434 24.1845C54.2509 24.0544 53.0908 23.6641 52.1367 22.8781C51.9429 22.984 51.7507 23.0913 51.559 23.1984C51.1476 23.4281 50.7385 23.6566 50.3207 23.8674C49.2283 24.4176 48.1225 24.4095 47.0383 23.8484C46.5683 23.6059 46.1102 23.3413 45.6402 23.0699C45.4325 22.9499 45.2225 22.8286 45.0081 22.7073C44.1218 23.4635 43.1948 23.8945 42.238 24.1005C41.0265 25.3934 39.4056 27.3314 38.9177 28.9007H41.7718L48.6944 34.9668Z" fill="black"/>
<path d="M48.5173 29.5823C46.75 29.501 45.113 29.0158 43.7794 27.7527C43.1479 27.1537 43.0584 26.5656 43.549 26.1346C44.1372 25.6196 44.6143 25.9042 45.1075 26.3623C46.9859 28.1132 50.2086 28.1051 52.1032 26.3406C52.6046 25.8744 53.0898 25.6251 53.659 26.1563C54.1361 26.5981 54.0331 27.17 53.3907 27.7717C52.0301 29.0565 50.355 29.5118 48.5173 29.5823L48.5173 29.5823Z" fill="black"/>
</svg>
