<svg width="49" height="55" viewBox="0 0 49 55" fill="none" xmlns="http://www.w3.org/2000/svg">
<path d="M10.8562 22.1054C11.5433 22.3017 12.1322 22.3017 12.7212 22.0073C13.1138 21.9091 13.212 21.5165 13.1138 21.1239C13.1138 21.0257 13.0157 20.9276 13.0157 20.7313C13.0157 20.6331 12.9175 20.5349 12.9175 20.4368C12.8194 19.946 12.7212 19.1608 12.7212 18.3755C12.7212 17.0013 12.9175 15.8234 13.212 15.6271C13.3102 15.529 13.3102 15.4308 13.3102 15.3326V14.5474V14.2529C13.1138 13.5658 13.0157 12.8787 13.0157 12.0935C13.0157 6.59667 18.1199 2.08113 24.4019 2.08113C29.5061 2.08113 33.825 5.02584 35.2975 9.05044C35.592 9.63938 35.8864 10.3264 35.9846 11.1117C36.1809 12.2896 36.0828 13.4675 36.1809 14.6454V15.2343C36.1809 15.3325 36.1809 15.5288 36.2791 15.6269C36.3773 15.7251 36.3773 15.9214 36.3773 16.0196C36.3773 16.4122 36.4754 16.8048 36.4754 17.2956C36.4754 18.5716 36.2791 19.7495 35.8865 20.8292C35.8865 20.9274 35.8865 20.9274 35.7883 21.0255C35.6902 21.4182 35.8865 21.7127 36.1809 21.9089C36.3773 22.0071 36.3773 22.1052 36.3773 22.2034C36.1809 23.9702 35.592 25.5407 34.6104 27.0131C33.6289 28.4854 32.2547 29.5651 30.586 30.4486C30.1934 30.6449 29.8008 30.8412 29.4081 30.9394H29.1137C28.6229 30.7431 28.2303 30.7431 27.7395 30.9394C26.9542 31.2338 26.169 31.4301 25.2856 31.7246C24.5003 31.9209 24.0096 32.4118 24.0096 33.0988C24.0096 33.6878 24.4022 34.1786 25.1874 34.473H25.2856H25.7764H25.9727C26.8561 34.1785 27.8377 33.8841 28.7211 33.5896C29.2119 33.3933 29.7027 33.197 29.8009 32.8044C29.899 32.3136 30.3898 32.1173 30.7824 31.921C32.0584 31.3321 33.2363 30.5468 34.218 29.6634C35.2977 28.5836 36.1811 27.4057 36.77 26.1297C37.359 24.8537 37.7516 23.5776 37.8498 22.2034C37.8498 22.1053 37.948 22.0071 38.0461 21.9089C39.0277 21.5163 39.5185 20.8292 39.5185 19.8477V14.7435C39.5185 13.8601 39.1259 13.173 38.2425 12.7804C37.948 12.5841 37.6535 12.2896 37.6535 11.897C37.5554 11.4062 37.5554 10.9154 37.4572 10.4246C37.1628 8.95222 36.4757 7.57808 35.5922 6.20382C34.807 5.02594 33.8254 3.94618 32.6475 3.06279C31.4696 2.17941 30.1936 1.49228 28.7212 1.00153C27.8378 0.805213 26.66 0.608899 25.4821 0.510742H25.2858H25.0894H23.8134H23.4208C22.93 0.608899 22.5374 0.608899 22.0466 0.707056C20.0835 1.00153 18.3166 1.78682 16.6479 2.86651C15.3719 3.74989 14.2922 4.73153 13.4088 5.90941C12.6235 6.98917 11.9364 8.26518 11.5438 9.54119C11.2493 10.5228 11.053 11.5043 10.9548 12.4859C10.9548 12.6822 10.8567 12.7804 10.6604 12.8785C9.67879 13.173 9.08984 13.8601 9.08984 14.7435V20.2403C9.28616 21.0256 9.97323 21.8109 10.8567 22.1054L10.8562 22.1054Z" fill="black"/>
<path fill-rule="evenodd" clip-rule="evenodd" d="M14.5862 17.7858C14.5862 17.4914 14.7826 17.0006 15.077 16.9024V16.9027C15.7641 16.6083 15.666 16.1175 15.5678 15.6267C15.5678 15.1395 15.5463 14.6416 15.5247 14.14C15.4809 13.1258 15.4365 12.0967 15.5678 11.1115C15.9604 8.06859 18.0217 6.20363 20.7701 5.22206C23.3224 4.33865 25.9726 4.33865 28.5247 5.32022C32.0583 6.59611 33.8252 9.4425 33.5307 13.3688C33.4816 13.7123 33.4571 14.0558 33.4326 14.3993C33.408 14.7428 33.3835 15.0864 33.3344 15.4301C33.3247 15.4982 33.3139 15.5654 33.3034 15.6314C33.2079 16.2311 33.1276 16.7353 33.9233 17.0006C34.1196 17.0987 34.316 17.4914 34.316 17.7858C34.5122 18.9637 34.316 20.0434 33.6288 21.1232C33.3834 21.5159 33.1379 21.9332 32.8924 22.3504C32.6471 22.7675 32.4018 23.1845 32.1564 23.5771C31.8947 23.9697 31.6438 24.3732 31.393 24.7767C30.8913 25.5838 30.3896 26.3909 29.8007 27.1107C26.8556 30.5462 22.3406 30.6444 19.2977 27.2089C18.3104 26.1392 17.5989 24.9317 16.8743 23.7018C16.7344 23.4645 16.5941 23.2263 16.4512 22.9881C16.2549 22.7427 16.1076 22.4728 15.9604 22.2028C15.8132 21.9329 15.6659 21.663 15.4696 21.4176C14.6844 20.3379 14.3899 19.0618 14.5862 17.7858ZM16.6967 17.5404C16.5249 17.4668 16.3531 17.3932 16.1568 17.295L16.1566 17.2951C16.1005 17.4073 16.0284 17.5195 15.9562 17.6317C15.776 17.9121 15.5957 18.1926 15.6658 18.473C15.764 19.16 16.0584 19.847 16.3528 20.534L16.3529 20.5343C16.5954 21.08 16.9129 21.5882 17.2358 22.1053C17.4357 22.4253 17.6377 22.7486 17.8253 23.0864L17.8281 23.0919C18.318 24.0716 18.8078 25.0512 19.2977 25.9329C20.8682 28.1905 23.3221 28.9757 25.9724 28.3868C28.1318 27.896 29.3097 26.4236 30.2913 24.6568C30.5935 24.1279 30.9102 23.5991 31.2303 23.0646C31.7419 22.2103 32.2621 21.3418 32.7452 20.436C32.777 20.3564 32.8115 20.2742 32.8468 20.1898C33.0293 19.7542 33.236 19.2608 33.236 18.7674C33.236 18.4856 33.0842 18.1532 32.926 17.8065C32.8638 17.6702 32.8006 17.5317 32.7452 17.3932C32.5489 17.4914 32.3525 17.565 32.1562 17.6386C31.9599 17.7122 31.7636 17.7858 31.5673 17.884C31.6718 17.3612 31.7485 16.8106 31.8271 16.247C31.896 15.7523 31.9663 15.2477 32.0581 14.743C31.2733 14.6449 30.5866 14.5468 29.8999 14.4487L29.8986 14.4485C26.6596 14.154 23.6167 13.2706 21.1628 10.9148C20.8684 10.6204 20.2794 10.424 19.8868 10.5222C18.0218 11.013 16.7458 13.0743 16.9421 15.0374C17.0402 16.019 17.1384 16.9024 17.2365 17.7858C17.0402 17.6877 16.8684 17.614 16.6967 17.5404Z" fill="black"/>
<path d="M48.4505 45.957C47.4689 41.1474 45.015 37.4172 40.3033 35.4541C38.2421 34.5707 36.0825 33.6872 33.9233 32.8038L32.7454 32.2148C32.4509 33.3927 32.2546 34.4725 31.9601 35.6504C30.8804 40.8527 28.8191 45.6627 25.4821 49.883C24.5987 50.9627 24.4023 50.9627 23.5189 49.883C20.6724 46.2512 18.7093 42.2264 17.6295 37.9081C17.1387 36.0431 16.7461 34.1782 16.2553 32.3132C13.605 33.4911 10.8566 34.5709 8.20675 35.7487C7.42149 36.1414 6.63624 36.534 5.9491 37.0248C2.31732 39.8713 0.550435 43.6014 0.354184 48.1163C0.256027 49.9814 0.746812 50.5702 2.51364 51.1592C2.70995 51.2574 2.90627 51.2574 3.10258 51.3556C7.81412 52.2389 12.6237 52.9261 17.4332 53.3187C22.7337 53.8095 28.1322 53.7113 33.433 53.1224C37.1629 52.7298 40.8929 52.1408 44.6225 51.5519C45.5059 51.4537 46.4876 51.0611 47.2728 50.7666C47.8618 50.5703 48.3526 50.0795 48.3526 49.2942C48.5489 48.2145 48.647 47.0366 48.4507 45.9569L48.4505 45.957Z" fill="black"/>
<path d="M26.561 47.135C26.561 47.0369 26.6592 47.0369 26.561 46.9387C26.4629 46.5461 26.4629 46.2516 26.3647 45.859C26.3647 45.5645 26.2665 45.27 26.1684 44.9756C25.0886 45.9572 24.1071 46.9387 23.1255 47.9203C23.5181 48.4111 24.0089 48.8037 24.4015 49.2945L26.561 47.135H26.561Z" fill="black"/>
<path d="M26.2667 36.24C26.1685 36.24 26.1685 36.24 26.2667 36.24C25.0888 35.6511 23.9109 35.6511 22.8312 36.24C22.3404 36.5345 22.2422 36.7308 22.6348 37.1234C23.0275 37.516 23.4201 37.8106 23.8127 38.2032C23.9109 38.3013 24.009 38.3995 23.9109 38.4977C23.8127 38.8903 23.8127 39.2829 23.7146 39.6755L25.187 38.4977C25.187 38.4977 25.187 38.3995 25.2851 38.3995C25.3833 38.3013 25.3833 38.2032 25.4814 38.105C25.8741 37.7124 26.2667 37.4179 26.5612 37.0253C26.7575 36.7308 26.7575 36.5345 26.2667 36.24L26.2667 36.24Z" fill="black"/>
<path d="M22.5366 47.3315C23.8126 46.35 24.9905 45.4665 26.0703 44.485L26.1684 44.3869C26.0703 43.9942 26.0703 43.6016 25.9721 43.1108C25.874 43.209 25.7758 43.209 25.7758 43.3072C24.8924 44.1905 24.009 45.074 23.0274 45.8592C22.7329 46.1537 22.4385 46.4482 22.4385 46.939C22.4385 47.0372 22.4385 47.1353 22.5366 47.3316V47.3315Z" fill="black"/>
<path d="M23.0274 43.6014C22.9292 43.994 22.9292 44.3867 22.8311 44.7793H22.9292C23.9108 43.994 24.7942 43.3069 25.7757 42.5217C25.7757 42.5217 25.8739 42.4235 25.8739 42.3253C25.7757 41.9327 25.7757 41.5401 25.6776 41.1475C25.5794 41.1475 25.5794 41.2456 25.5794 41.2456C24.7942 42.0309 23.9108 42.8161 23.1255 43.6014H23.0274V43.6014Z" fill="black"/>
<path d="M25.4812 40.362C25.383 39.9693 25.383 39.5767 25.2849 39.1841H25.1867C25.1867 39.2822 25.0886 39.2822 25.0886 39.3804L23.8126 40.6564C23.5181 40.8527 23.4199 41.1472 23.4199 41.4417C23.4199 41.7361 23.3218 41.9324 23.3218 42.2269H23.4199C24.1071 41.638 24.7941 41.1472 25.4812 40.5583V40.362Z" fill="black"/>
</svg>
