<svg width="58" height="50" viewBox="0 0 58 50" fill="none" xmlns="http://www.w3.org/2000/svg">
<path fill-rule="evenodd" clip-rule="evenodd" d="M49.8557 0.988559C48.0649 0.308861 46.1536 0.000350192 44.2399 0.185938L44.24 0.185839C42.2034 0.371439 40.2294 1.04874 38.5664 2.09959C37.0238 3.08535 35.7271 4.38208 34.8015 5.92463C33.8158 7.46718 33.1987 9.25556 33.0132 11.1066C32.7673 13.389 33.1361 15.6715 34.1243 17.7081C35.3585 20.422 37.7036 22.6443 40.4802 23.8157C43.1312 24.9268 46.279 25.1124 49.0556 24.1868C50.7837 23.6325 52.3865 22.707 53.6832 21.4729C54.9775 20.3016 56.026 18.8217 56.7057 17.2165C57.5685 15.1825 57.877 12.9603 57.5685 10.8007C57.3202 8.94961 56.643 7.09855 55.5318 5.49331C54.1122 3.45664 52.1382 1.91409 49.8557 0.988559ZM40.1667 9.9328C40.4752 8.39025 41.5864 6.97307 43.006 6.29336L43.006 6.29339C44.1171 5.73903 45.4138 5.61611 46.7708 5.98488C47.9446 6.29339 49.0533 7.03332 49.733 8.02154C50.0415 8.51565 49.9186 9.19534 49.4245 9.44118C49.0533 9.68703 48.6218 9.68703 48.3133 9.44118C48.1895 9.35754 48.1204 9.27497 48.0515 9.19275C48.0173 9.15178 47.983 9.11089 47.9422 9.07001C47.3878 8.39032 46.6454 7.95889 45.7826 7.83597C45.0402 7.71304 44.1773 7.89863 43.5603 8.33006C42.9433 8.6988 42.4492 9.31582 42.2034 9.99553H45.4741C45.7826 9.99553 46.0911 10.1185 46.2767 10.427C46.4623 10.7355 46.4623 11.1669 46.2767 11.4754C46.1538 11.7839 45.7826 11.9695 45.4741 11.9695H42.0178V13.4494H45.4741C45.7826 13.3891 46.0911 13.5747 46.2767 13.8205C46.5249 14.1291 46.5249 14.6232 46.3394 14.9317C46.1562 15.2402 45.8477 15.4258 45.4765 15.4258H42.2685C42.5143 16.0428 43.0084 16.5971 43.6254 16.9683C44.3654 17.3998 45.2909 17.5227 46.0935 17.2768C46.8335 17.0912 47.5132 16.5971 47.9446 15.9801C48.1277 15.6716 48.4989 15.5487 48.8074 15.5487C49.1762 15.5487 49.4847 15.7945 49.6703 16.103C49.7932 16.4115 49.7932 16.7827 49.6076 17.0912C48.6821 18.3253 47.2022 19.1906 45.6597 19.3135C44.1798 19.4364 42.5746 18.8194 41.5261 17.7083C40.8489 17.0912 40.415 16.2259 40.1692 15.3631H38.9978C38.6893 15.3631 38.3808 15.1775 38.1952 14.869C38.0096 14.6232 38.0096 14.252 38.1325 13.9435C38.3157 13.635 38.6242 13.3891 38.9954 13.3891H40.0438V11.9092H38.9954C38.5013 11.9092 38.0698 11.4151 38.0698 10.921C38.0698 10.4269 38.5013 9.9328 38.9954 9.9328H40.1667Z" fill="black"/>
<path d="M1.04841 16.2285C1.78834 15.18 2.96216 14.563 4.25643 14.563H14.3145V25.5466C13.7601 24.8067 13.0804 24.1896 12.4007 23.6955C11.6608 23.1412 10.7955 22.77 9.86996 22.5844C9.13003 22.4615 8.32741 22.4615 7.6477 22.8302C7.03068 23.1387 6.53657 23.7558 6.35097 24.4355C6.10512 25.2983 6.22804 26.2865 6.59681 27.0892C7.09091 28.3232 7.89354 29.4343 8.94199 30.2972H0.426475V18.5738C0.308371 17.6482 0.554217 16.8456 1.04831 16.2286L1.04841 16.2285Z" fill="black"/>
<path d="M16.2881 14.5H30.0483C30.4797 17.8309 32.0222 20.9787 34.4301 23.324C36.5897 25.4836 39.429 26.9635 42.3884 27.5203C44.8565 28.0144 47.3873 27.8288 49.7927 27.0888V30.1739H21.5325C22.2122 29.6196 22.7665 28.9399 23.2607 28.2C23.7547 27.3973 24.1862 26.4116 24.2489 25.4234C24.3115 24.6834 24.1259 23.9435 23.6319 23.3265C23.2004 22.7721 22.4605 22.4636 21.7181 22.4009C20.7926 22.3383 19.9297 22.5865 19.1271 22.9553C18.0787 23.5097 17.0904 24.252 16.3505 25.1776C16.2878 21.6586 16.2878 18.0794 16.2878 14.5L16.2881 14.5Z" fill="black"/>
<path d="M8.70116 24.4352C9.19526 24.3123 9.62669 24.4352 10.1208 24.6208C10.9836 24.992 11.7863 25.5463 12.4033 26.226C12.9576 26.843 13.4517 27.583 13.7 28.3856C13.8229 28.7568 13.8856 29.1882 13.7627 29.557C13.7 29.8028 13.3915 29.9281 13.1457 29.9281C12.5913 29.9908 12.0972 29.8052 11.6031 29.6196C10.7403 29.2484 10.0606 28.6314 9.44353 27.9542C8.94944 27.3998 8.58069 26.7828 8.3324 26.0404C8.20948 25.6692 8.14681 25.2378 8.26974 24.869C8.26733 24.681 8.45292 24.4955 8.70117 24.4352L8.70116 24.4352Z" fill="black"/>
<path d="M20.8558 24.4353C21.1644 24.3726 21.5356 24.3124 21.8441 24.498C22.0899 24.6209 22.1526 24.8691 22.2152 25.115C22.2779 25.6091 22.0923 26.1032 21.9067 26.5346C21.4753 27.4602 20.8583 28.2001 20.0557 28.8171C19.4387 29.3112 18.6987 29.7426 17.8961 29.9282C17.5876 29.9909 17.2164 29.9909 16.9079 29.8656C16.662 29.7427 16.5994 29.4341 16.5994 29.1256C16.5994 28.5713 16.785 28.0772 17.0308 27.5831C17.4622 26.7805 18.0792 26.0405 18.8192 25.4862C19.4362 24.9897 20.1159 24.6186 20.8558 24.4354L20.8558 24.4353Z" fill="black"/>
<path d="M0.308594 32.1479H12.8347C11.4778 33.5049 10.1208 34.8619 8.76142 36.2213C8.4529 36.5298 8.39024 36.9612 8.57583 37.3324C8.76142 37.7036 9.13018 37.9494 9.50136 37.8868C9.7472 37.8868 9.99546 37.7638 10.1811 37.5783C11.538 36.2213 12.9577 34.8643 14.3146 33.4447V48.993H4.31949C3.57956 48.993 2.83963 48.8074 2.15992 48.376C1.04878 47.6963 0.308853 46.402 0.308853 45.0451V32.1481L0.308594 32.1479Z" fill="black"/>
<path d="M17.7708 32.2081H49.793V45.3512C49.7303 46.2141 49.4218 47.0794 48.8047 47.7566C48.1877 48.4966 47.2622 48.9907 46.3366 49.1136C45.9052 49.1763 45.534 49.1136 45.1026 49.1763H16.2883V33.565C17.6453 34.9846 19.0649 36.3416 20.4219 37.6985C20.6075 37.8841 20.916 38.0071 21.1618 38.0071C21.4703 38.0071 21.8415 37.8215 22.0247 37.513C22.2102 37.2044 22.2102 36.8332 22.0873 36.5874C21.9644 36.4018 21.7788 36.2163 21.6559 36.0933C20.2989 34.7388 19.0649 33.4421 17.7706 32.208L17.7708 32.2081Z" fill="black"/>
</svg>
