<svg width="70" height="34" viewBox="0 0 70 34" fill="none" xmlns="http://www.w3.org/2000/svg">
<path fill-rule="evenodd" clip-rule="evenodd" d="M23.031 25.1326C23.9078 24.2558 25.1205 23.7119 26.4609 23.7119C27.7984 23.7119 29.014 24.2559 29.8937 25.1326C30.7705 26.0094 31.3144 27.222 31.3144 28.5625C31.3144 29.9029 30.7734 31.1155 29.8937 31.9923C29.014 32.8691 27.8013 33.413 26.4609 33.413C25.1205 33.413 23.9078 32.8691 23.031 31.9923C22.1543 31.1156 21.6104 29.9029 21.6104 28.5625C21.6104 27.222 22.1543 26.0094 23.031 25.1326ZM24.3833 28.5625C24.3833 29.7067 25.3166 30.64 26.4609 30.64C27.6052 30.64 28.5355 29.7067 28.5384 28.5625C28.5384 27.4182 27.6052 26.4849 26.4609 26.4849C25.3166 26.4849 24.3833 27.4182 24.3833 28.5625Z" fill="black"/>
<path d="M31.9298 13.4461C31.9298 15.2056 29.2905 15.2056 29.2905 13.4461C29.2905 11.6866 31.9298 11.6866 31.9298 13.4461Z" fill="black"/>
<path fill-rule="evenodd" clip-rule="evenodd" d="M68.3736 15.0863C68.9622 15.6806 69.2564 16.3999 69.2564 17.2351L69.25 24.5196C69.25 26.1394 67.9304 27.462 66.3106 27.462H64.881C64.661 26.3207 64.0993 25.3013 63.3087 24.5107C62.2714 23.4734 60.8388 22.8315 59.2547 22.8315C57.6706 22.8315 56.238 23.4734 55.2007 24.5107C54.4101 25.3013 53.8514 26.3207 53.6285 27.462H32.0867C31.8667 26.3207 31.3051 25.3013 30.5145 24.5107C29.4772 23.4734 28.0446 22.8315 26.4605 22.8315C24.8763 22.8315 23.4438 23.4734 22.4065 24.5107C21.6159 25.3013 21.0571 26.3207 20.8342 27.462H17.5352V8.61301H9.09712C8.60965 8.61301 8.21436 8.21771 8.21436 7.73025C8.21436 7.24278 8.60969 6.84748 9.09712 6.84748L17.5352 6.85046V0.062054L52.5116 0.059082V3.83071H53.0347C55.8433 3.83071 58.2626 4.84122 60.2361 6.84147L68.3736 15.0863ZM52.636 6.58293V13.7042L63.6448 13.7042L57.8729 7.8491C57.0467 7.01092 56.0361 6.58887 54.8592 6.5859L52.636 6.58293Z" fill="black"/>
<path fill-rule="evenodd" clip-rule="evenodd" d="M55.8289 25.1326C56.7056 24.2558 57.9183 23.7119 59.2587 23.7119C60.5992 23.7119 61.8118 24.2559 62.6886 25.1326C63.5654 26.0094 64.1093 27.222 64.1093 28.5625C64.1093 29.9029 63.5653 31.1155 62.6886 31.9923C61.8118 32.8691 60.5992 33.413 59.2587 33.413C57.9183 33.413 56.7056 32.872 55.8289 31.9923C54.9521 31.1156 54.4082 29.9029 54.4082 28.5625C54.4082 27.222 54.9521 26.0094 55.8289 25.1326ZM57.2347 28.5625C57.2347 29.7067 58.165 30.64 59.3093 30.64C60.4535 30.64 61.3868 29.7067 61.3868 28.5625C61.3868 27.4182 60.4535 26.4849 59.3093 26.4849C58.168 26.4849 57.2347 27.4182 57.2347 28.5625Z" fill="black"/>
<path d="M11.226 13.7519C11.226 13.2645 10.8307 12.8691 10.3432 12.8691H1.62592C1.1385 12.8691 0.743164 13.2644 0.743164 13.7519C0.743164 14.2394 1.13846 14.6347 1.62592 14.6347H10.3432C10.8306 14.6347 11.226 14.2394 11.226 13.7519Z" fill="black"/>
<path d="M14.3411 19.667H3.54585C3.05842 19.667 2.66309 20.0623 2.66309 20.5498C2.66309 21.0372 3.05838 21.4325 3.54585 21.4325H14.3411C14.8285 21.4325 15.2238 21.0372 15.2238 20.5498C15.2238 20.0623 14.8285 19.667 14.3411 19.667Z" fill="black"/>
</svg>
