<svg width="43" height="27" viewBox="0 0 43 27" fill="none" xmlns="http://www.w3.org/2000/svg">
<rect x="0.0168457" y="0.12793" width="42.7543" height="26.7523" rx="1.215" fill="#14457C"/>
<path fill-rule="evenodd" clip-rule="evenodd" d="M23.6153 13.4856C23.6153 17.1666 20.6741 20.1502 17.0458 20.1502C13.4172 20.1502 10.4758 17.1666 10.4758 13.4856C10.4758 9.80473 13.4172 6.8208 17.0458 6.8208C20.6741 6.8208 23.6153 9.80473 23.6153 13.4856Z" fill="#D82332"/>
<path fill-rule="evenodd" clip-rule="evenodd" d="M25.9308 6.8208C24.233 6.8208 22.6864 7.47413 21.5202 8.5459C21.2831 8.76434 21.0615 9.00027 20.8573 9.25147H22.1845C22.3658 9.47539 22.5329 9.71079 22.6853 9.95735H20.3562C20.2169 10.1839 20.0902 10.4193 19.9777 10.6632H23.0638C23.1692 10.8917 23.2621 11.127 23.342 11.3688H19.6995C19.6236 11.5987 19.5597 11.8341 19.5085 12.0743H23.5326C23.6289 12.5293 23.6802 13.0013 23.6802 13.4856C23.6802 14.2255 23.5614 14.9377 23.342 15.6028H19.6995C19.7793 15.8445 19.8722 16.08 19.9775 16.3088H23.0638C22.951 16.5521 22.8249 16.7877 22.6848 17.0146H20.3562C20.5082 17.2604 20.6756 17.4961 20.8573 17.7197H22.1841C21.9802 17.9711 21.7585 18.2071 21.5205 18.4255C22.6866 19.4973 24.233 20.1502 25.9308 20.1502C29.5591 20.1502 32.5005 17.1666 32.5005 13.4856C32.5005 9.80505 29.5591 6.8208 25.9308 6.8208Z" fill="#F1AB3E"/>
<path fill-rule="evenodd" clip-rule="evenodd" d="M31.552 17.1452C31.552 17.0275 31.6469 16.9321 31.764 16.9321C31.8812 16.9321 31.9757 17.0275 31.9757 17.1452C31.9757 17.2629 31.8812 17.3584 31.764 17.3584C31.6469 17.3584 31.552 17.2629 31.552 17.1452ZM31.764 17.3073C31.8526 17.3073 31.9249 17.2346 31.9249 17.1452C31.9249 17.0554 31.8526 16.9833 31.764 16.9833C31.6749 16.9833 31.6028 17.0554 31.6028 17.1452C31.6028 17.2346 31.6749 17.3073 31.764 17.3073ZM31.7353 17.2387H31.6917V17.0517H31.7706C31.7869 17.0517 31.8037 17.0517 31.8182 17.0607C31.833 17.0713 31.8417 17.0892 31.8417 17.1077C31.8417 17.1289 31.8296 17.1487 31.8094 17.1562L31.8438 17.2387H31.7956L31.767 17.1648H31.7353V17.2387ZM31.7353 17.1325H31.7593C31.7682 17.1325 31.7778 17.1332 31.7858 17.1289C31.7929 17.1242 31.7967 17.1159 31.7967 17.1073C31.7967 17.1002 31.792 17.0919 31.7861 17.0882C31.7784 17.0837 31.7664 17.0847 31.7583 17.0847H31.7353V17.1325Z" fill="#F1AB3E"/>
<path fill-rule="evenodd" clip-rule="evenodd" d="M31.552 15.0384C31.552 14.9203 31.6472 14.8252 31.7636 14.8252C31.8808 14.8252 31.9753 14.9203 31.9753 15.0384C31.9753 15.1557 31.8808 15.2515 31.7636 15.2515C31.6472 15.2515 31.552 15.1557 31.552 15.0384ZM31.7636 15.2004C31.8528 15.2004 31.9249 15.1277 31.9249 15.0384C31.9249 14.9491 31.8528 14.8764 31.7636 14.8764C31.6747 14.8764 31.6028 14.9491 31.6028 15.0384C31.6028 15.1277 31.6747 15.2004 31.7636 15.2004ZM31.7351 15.1315H31.6917V14.9446H31.7704C31.7869 14.9446 31.8035 14.9452 31.8179 14.9542C31.8332 14.9643 31.8415 14.9822 31.8415 15.0008C31.8415 15.022 31.8294 15.0418 31.8096 15.0493L31.8438 15.1315H31.7956L31.767 15.0576H31.7351V15.1315ZM31.7351 15.0256H31.7591C31.7678 15.0256 31.778 15.0264 31.7856 15.022C31.7927 15.0175 31.7963 15.0085 31.7963 15.0004C31.7963 14.9933 31.7922 14.9854 31.7861 14.981C31.7786 14.9768 31.7664 14.978 31.7583 14.978H31.7351V15.0256Z" fill="#FFFFFE"/>
<path fill-rule="evenodd" clip-rule="evenodd" d="M30.88 11.9814L30.7214 12.9581C30.5268 12.6979 30.3173 12.5093 30.0407 12.5093C29.6807 12.5093 29.3533 12.7861 29.1388 13.1937C28.84 13.1308 28.5314 13.0239 28.5314 13.0239L28.5312 13.0266C28.5549 12.7988 28.565 12.6602 28.5627 12.6128H27.9074C27.8184 13.4639 27.6596 14.3256 27.5357 15.1771L27.5029 15.362H28.2167C28.313 14.7276 28.3866 14.2001 28.441 13.7824C28.6848 13.5588 28.8069 13.3641 29.0529 13.3768C28.9439 13.6445 28.8801 13.9527 28.8801 14.2689C28.8801 14.9559 29.2227 15.4095 29.7414 15.4095C30.0028 15.4095 30.2033 15.318 30.399 15.1061L30.3653 15.3618H31.0402L31.5834 11.9814H30.88ZM29.9879 14.7269C29.7452 14.7269 29.6224 14.5443 29.6224 14.1849C29.6224 13.6445 29.8521 13.2614 30.1755 13.2614C30.4207 13.2614 30.5535 13.4506 30.5535 13.7999C30.5535 14.3449 30.3199 14.7269 29.9879 14.7269Z" fill="#0C2D5A"/>
<path fill-rule="evenodd" clip-rule="evenodd" d="M26.7797 14.1998C26.7052 14.191 26.6722 14.1886 26.6209 14.1886C26.2167 14.1886 26.0121 14.3291 26.0121 14.6068C26.0121 14.7778 26.112 14.8872 26.2677 14.8872C26.558 14.8872 26.7677 14.6066 26.7797 14.1998ZM27.2988 15.4244C27.2039 15.4244 26.7079 15.4244 26.7079 15.4244L26.7213 15.1398C26.541 15.3646 26.3005 15.4722 25.974 15.4722C25.5872 15.4722 25.3225 15.1657 25.3225 14.721C25.3225 14.0513 25.7831 13.6614 26.5745 13.6614C26.6554 13.6614 26.7588 13.6689 26.8648 13.6828C26.8869 13.5918 26.8928 13.5532 26.8928 13.5039C26.8928 13.3221 26.769 13.2544 26.4356 13.2544C26.0868 13.2501 25.7993 13.3383 25.6806 13.3776C25.6882 13.3321 25.7795 12.7594 25.7795 12.7594C26.135 12.6537 26.3693 12.6138 26.6331 12.6138C27.2455 12.6138 27.5701 12.893 27.5693 13.42C27.5707 13.5613 27.5476 13.736 27.5117 13.9648C27.4498 14.3626 27.3171 15.217 27.2988 15.4244Z" fill="#0C2D5A"/>
<path fill-rule="evenodd" clip-rule="evenodd" d="M24.8983 12.7138C25.0964 12.7138 25.2813 12.766 25.5357 12.8962L25.6525 12.1626C25.5476 12.1209 25.18 11.8765 24.8685 11.8765C24.3913 11.8765 23.9874 12.117 23.7039 12.5131C23.2899 12.3741 23.1195 12.6551 22.911 12.9353L22.7257 12.9791C22.7397 12.8869 22.7525 12.7953 22.7484 12.7026H22.093C22.0038 13.5537 21.8453 14.4155 21.7211 15.2669L21.6887 15.4519H22.4023C22.5213 14.6668 22.5864 14.1643 22.6261 13.8239L22.8948 13.6729C22.9352 13.5211 23.0605 13.4701 23.3125 13.4763C23.2797 13.6556 23.2618 13.8444 23.2618 14.0398C23.2618 14.9394 23.7408 15.4994 24.5083 15.4994C24.706 15.4994 24.876 15.4731 25.139 15.4004L25.2639 14.6301C25.0275 14.7479 24.8338 14.8034 24.6582 14.8034C24.2435 14.8034 23.9927 14.4928 23.9927 13.9798C23.9927 13.2352 24.3656 12.7138 24.8983 12.7138Z" fill="#0C2D5A"/>
<path fill-rule="evenodd" clip-rule="evenodd" d="M21.4435 15.3609C21.1999 15.4366 20.9646 15.4724 20.7159 15.4722C19.9221 15.4716 19.5085 15.0509 19.5085 14.2458C19.5085 13.3057 20.0347 12.6138 20.7489 12.6138C21.334 12.6138 21.7071 13.0012 21.7071 13.6092C21.7071 13.8107 21.6811 14.0073 21.6199 14.2851H20.208C20.16 14.6839 20.4118 14.8503 20.8241 14.8503C21.0777 14.8503 21.3068 14.797 21.5615 14.677L21.4435 15.3609ZM21.045 13.7306C21.0489 13.6731 21.1201 13.2399 20.715 13.2399C20.4893 13.2399 20.3278 13.4149 20.262 13.7306H21.045Z" fill="#0C2D5A"/>
<path fill-rule="evenodd" clip-rule="evenodd" d="M19.235 15.4212C19.0399 15.4836 18.8877 15.5107 18.7228 15.5107C18.3581 15.5107 18.159 15.298 18.159 14.9069C18.154 14.785 18.2116 14.4659 18.2569 14.174C18.298 13.9169 18.5662 12.2979 18.5662 12.2979H19.2751L19.1922 12.7139H19.5561L19.4593 13.3745H19.0941C19.0118 13.8977 18.8943 14.5486 18.8929 14.635C18.8929 14.7772 18.9677 14.8387 19.1373 14.8387C19.2185 14.8387 19.2814 14.8306 19.3296 14.8128L19.235 15.4212Z" fill="#0C2D5A"/>
<path fill-rule="evenodd" clip-rule="evenodd" d="M16.456 13.5444C16.456 13.8925 16.6223 14.1318 16.9993 14.3122C17.288 14.45 17.3327 14.4907 17.3327 14.6157C17.3327 14.787 17.2054 14.8643 16.9231 14.8643C16.7102 14.8643 16.5124 14.8308 16.2839 14.7562C16.2839 14.7562 16.1905 15.3619 16.186 15.3905C16.3481 15.4266 16.4927 15.4594 16.9282 15.4722C17.6809 15.4722 18.0285 15.1816 18.0285 14.5533C18.0285 14.1754 17.8829 13.9538 17.5257 13.7874C17.2267 13.6478 17.1923 13.617 17.1923 13.4885C17.1923 13.3399 17.3107 13.2634 17.5413 13.2634C17.6812 13.2634 17.8725 13.2792 18.0538 13.3051L18.1553 12.6676C17.9706 12.638 17.6907 12.6138 17.5275 12.6138C16.7297 12.6138 16.4536 13.0365 16.456 13.5444Z" fill="#0C2D5A"/>
<path fill-rule="evenodd" clip-rule="evenodd" d="M15.5673 14.1998C15.4925 14.191 15.4595 14.1886 15.4081 14.1886C15.0038 14.1886 14.7992 14.3291 14.7992 14.6068C14.7992 14.7778 14.8991 14.8872 15.0549 14.8872C15.3455 14.8872 15.5549 14.6066 15.5673 14.1998ZM16.086 15.4244C15.991 15.4244 15.4951 15.4244 15.4951 15.4244L15.5086 15.1398C15.3284 15.3646 15.0878 15.4722 14.7611 15.4722C14.3746 15.4722 14.1096 15.1657 14.1096 14.721C14.1096 14.0513 14.5705 13.6614 15.3617 13.6614C15.4427 13.6614 15.5463 13.6689 15.6524 13.6828C15.6745 13.5918 15.6804 13.5532 15.6804 13.5039C15.6804 13.3221 15.5561 13.2544 15.223 13.2544C14.8739 13.2501 14.5863 13.3383 14.4679 13.3776C14.4754 13.3321 14.5669 12.7594 14.5669 12.7594C14.9222 12.6537 15.1567 12.6138 15.4205 12.6138C16.0329 12.6138 16.3573 12.893 16.3567 13.42C16.3579 13.5613 16.3349 13.736 16.299 13.9648C16.2371 14.3626 16.1042 15.217 16.086 15.4244Z" fill="#0C2D5A"/>
<path fill-rule="evenodd" clip-rule="evenodd" d="M13.7511 15.4672H13.038L13.4466 12.8686L12.5343 15.4672H12.0482L11.9881 12.8837L11.5587 15.4672H10.8911L11.4487 12.0869H12.4744L12.503 14.1795L13.195 12.0869H14.3027L13.7511 15.4672Z" fill="#0C2D5A"/>
<path fill-rule="evenodd" clip-rule="evenodd" d="M31.324 15.2567H30.6495L30.6829 15.0009C30.4872 15.2129 30.2866 15.3044 30.0253 15.3044C29.5069 15.3044 29.1641 14.8513 29.1641 14.1636C29.1641 13.2492 29.6957 12.4784 30.3245 12.4784C30.6012 12.4784 30.8106 12.593 31.0057 12.8533L31.1639 11.8765H31.8673L31.324 15.2567ZM30.2719 14.6215C30.6042 14.6215 30.8374 14.2397 30.8374 13.6952C30.8374 13.3458 30.7046 13.1562 30.4594 13.1562C30.1359 13.1562 29.9062 13.5392 29.9062 14.0798C29.9062 14.4397 30.0293 14.6215 30.2719 14.6215Z" fill="#FFFFFE"/>
<path fill-rule="evenodd" clip-rule="evenodd" d="M28.1148 12.4323C28.0256 13.2833 27.867 14.1451 27.7429 14.9965L27.7104 15.1814H28.4238C28.6789 13.5002 28.7404 13.1721 29.1407 13.2131C29.2044 12.869 29.3229 12.5677 29.4114 12.4158C29.1127 12.3526 28.9458 12.5239 28.7272 12.8493C28.7446 12.7085 28.7761 12.5719 28.7702 12.4323H28.1148Z" fill="#FFFFFE"/>
<path fill-rule="evenodd" clip-rule="evenodd" d="M26.9874 13.9889C26.913 13.9801 26.88 13.9776 26.8287 13.9776C26.4245 13.9776 26.2199 14.1181 26.2199 14.3959C26.2199 14.5668 26.3197 14.6763 26.4755 14.6763C26.7658 14.6763 26.9755 14.3957 26.9874 13.9889ZM27.5065 15.2135C27.4116 15.2135 26.9157 15.2135 26.9157 15.2135L26.9291 14.9288C26.7487 15.1537 26.5083 15.2612 26.1818 15.2612C25.7949 15.2612 25.5303 14.9547 25.5303 14.51C25.5303 13.8404 25.9908 13.4505 26.7823 13.4505C26.8632 13.4505 26.9666 13.458 27.0726 13.4719C27.0947 13.3809 27.1006 13.3422 27.1006 13.2929C27.1006 13.1111 26.9767 13.0434 26.6434 13.0434C26.2945 13.0392 26.007 13.1274 25.8884 13.1666C25.8959 13.1211 25.9873 12.5485 25.9873 12.5485C26.3428 12.4427 26.577 12.4028 26.8408 12.4028C27.4533 12.4028 27.7778 12.682 27.7771 13.2091C27.7785 13.3503 27.7554 13.5251 27.7195 13.7538C27.6576 14.1516 27.5248 15.006 27.5065 15.2135Z" fill="#FFFFFE"/>
<path fill-rule="evenodd" clip-rule="evenodd" d="M25.8439 11.9466L25.7271 12.6802C25.4725 12.5503 25.288 12.4977 25.09 12.4977C24.5575 12.4977 24.184 13.0198 24.184 13.7645C24.184 14.2775 24.4351 14.5875 24.8497 14.5875C25.0253 14.5875 25.2193 14.5324 25.4554 14.4141L25.3301 15.1844C25.0675 15.2571 24.8976 15.2836 24.6999 15.2836C23.9319 15.2836 23.4536 14.7234 23.4536 13.8241C23.4536 12.6156 24.1149 11.771 25.06 11.771C25.3714 11.771 25.7393 11.9049 25.8439 11.9466Z" fill="#FFFFFE"/>
<path fill-rule="evenodd" clip-rule="evenodd" d="M22.3013 12.4323C22.2116 13.2833 22.0528 14.1451 21.929 14.9965L21.8965 15.1814H22.6101C22.8654 13.5002 22.9266 13.1721 23.3263 13.2131C23.3904 12.869 23.5093 12.5677 23.5974 12.4158C23.2989 12.3526 23.1319 12.5239 22.9136 12.8493C22.9309 12.7085 22.9625 12.5719 22.9562 12.4323H22.3013Z" fill="#FFFFFE"/>
<path fill-rule="evenodd" clip-rule="evenodd" d="M21.651 15.15C21.4074 15.2256 21.1721 15.2614 20.9234 15.2612C20.1296 15.2607 19.7161 14.8399 19.7161 14.0348C19.7161 13.0948 20.2422 12.4028 20.9564 12.4028C21.5415 12.4028 21.9146 12.7902 21.9146 13.3982C21.9146 13.5997 21.8887 13.7964 21.8274 14.0741H20.4155C20.3676 14.473 20.6193 14.6394 21.0316 14.6394C21.2852 14.6394 21.5143 14.5861 21.7691 14.466L21.651 15.15ZM21.2525 13.5197C21.2564 13.4622 21.3276 13.029 20.9225 13.029C20.6968 13.029 20.5353 13.2039 20.4695 13.5197H21.2525Z" fill="#FFFFFE"/>
<path fill-rule="evenodd" clip-rule="evenodd" d="M19.4428 15.2103C19.2477 15.2726 19.0955 15.2997 18.9305 15.2997C18.5659 15.2997 18.3668 15.0871 18.3668 14.696C18.3618 14.574 18.4194 14.255 18.4647 13.9631C18.5058 13.706 18.774 12.0869 18.774 12.0869H19.4829L19.4 12.5029H19.7639L19.667 13.1635H19.3019C19.2196 13.6868 19.102 14.3377 19.1007 14.4241C19.1007 14.5662 19.1754 14.6277 19.3451 14.6277C19.4263 14.6277 19.4892 14.6196 19.5374 14.6018L19.4428 15.2103Z" fill="#FFFFFE"/>
<path fill-rule="evenodd" clip-rule="evenodd" d="M16.6637 13.3335C16.6637 13.6816 16.8301 13.9209 17.207 14.1013C17.4958 14.2391 17.5404 14.2798 17.5404 14.4047C17.5404 14.5761 17.4131 14.6534 17.1308 14.6534C16.918 14.6534 16.7201 14.6199 16.4917 14.5452C16.4917 14.5452 16.3983 15.1509 16.3938 15.1796C16.5559 15.2156 16.7005 15.2485 17.1359 15.2612C17.8886 15.2612 18.2362 14.9706 18.2362 14.3424C18.2362 13.9645 18.0907 13.7429 17.7334 13.5765C17.4344 13.4369 17.4001 13.406 17.4001 13.2775C17.4001 13.1289 17.5185 13.0525 17.7491 13.0525C17.889 13.0525 18.0803 13.0683 18.2616 13.0942L18.3631 12.4567C18.1784 12.4271 17.8985 12.4028 17.7353 12.4028C16.9374 12.4028 16.6614 12.8256 16.6637 13.3335Z" fill="#FFFFFE"/>
<path fill-rule="evenodd" clip-rule="evenodd" d="M15.7751 13.9889C15.7003 13.9801 15.6673 13.9776 15.6159 13.9776C15.2116 13.9776 15.007 14.1181 15.007 14.3959C15.007 14.5668 15.1069 14.6763 15.2627 14.6763C15.5533 14.6763 15.7627 14.3957 15.7751 13.9889ZM16.2938 15.2135C16.1988 15.2135 15.7029 15.2135 15.7029 15.2135L15.7164 14.9288C15.5362 15.1537 15.2956 15.2612 14.9689 15.2612C14.5823 15.2612 14.3174 14.9547 14.3174 14.51C14.3174 13.8404 14.7783 13.4505 15.5695 13.4505C15.6505 13.4505 15.7541 13.458 15.8602 13.4719C15.8823 13.3809 15.8881 13.3422 15.8881 13.2929C15.8881 13.1111 15.7638 13.0434 15.4308 13.0434C15.0816 13.0392 14.794 13.1274 14.6757 13.1666C14.6832 13.1211 14.7746 12.5485 14.7746 12.5485C15.13 12.4427 15.3644 12.4028 15.6283 12.4028C16.2407 12.4028 16.565 12.682 16.5644 13.2091C16.5657 13.3503 16.5426 13.5251 16.5068 13.7538C16.4448 14.1516 16.3119 15.006 16.2938 15.2135Z" fill="#FFFFFE"/>
<path fill-rule="evenodd" clip-rule="evenodd" d="M13.9589 15.2567H13.2457L13.6544 12.6582L12.7421 15.2567H12.256L12.1959 12.6732L11.7665 15.2567H11.0989L11.6565 11.8765H12.6822L12.7107 13.969L13.4028 11.8765H14.5105L13.9589 15.2567Z" fill="#FFFFFE"/>
</svg>
