<svg width="43" height="27" viewBox="0 0 43 27" fill="none" xmlns="http://www.w3.org/2000/svg">
<path fill-rule="evenodd" clip-rule="evenodd" d="M0.0932617 1.34293C0.0932617 0.671903 0.637236 0.12793 1.30826 0.12793H41.3896C42.0606 0.12793 42.6046 0.671904 42.6046 1.34293V25.6652C42.6046 26.3362 42.0606 26.8802 41.3896 26.8802H1.30826C0.637236 26.8802 0.0932617 26.3362 0.0932617 25.6652V1.34293Z" fill="#2890C3"/>
<path fill-rule="evenodd" clip-rule="evenodd" d="M27.8186 16.6759L27.3635 19.6144C27.3546 19.6713 27.3979 19.7228 27.4547 19.7228H27.9126C27.9884 19.7228 28.053 19.6668 28.0647 19.5908L28.5136 16.7051C28.5225 16.6482 28.4792 16.5967 28.4223 16.5967H27.91C27.8644 16.5967 27.8256 16.6302 27.8186 16.6759Z" fill="white"/>
<path fill-rule="evenodd" clip-rule="evenodd" d="M26.4525 18.6866C26.4011 18.9945 26.1603 19.2013 25.853 19.2013C25.699 19.2013 25.5756 19.1509 25.4963 19.0557C25.4177 18.9614 25.3882 18.8269 25.4131 18.6773C25.4609 18.372 25.7057 18.1587 26.0083 18.1587C26.1592 18.1587 26.2816 18.2095 26.3624 18.3056C26.4437 18.4024 26.4758 18.5376 26.4525 18.6866ZM27.1927 17.6377H26.6615C26.6161 17.6377 26.5773 17.6712 26.5702 17.7169L26.5468 17.8675L26.5097 17.813C26.3947 17.6436 26.1383 17.5869 25.8823 17.5869C25.2956 17.5869 24.7943 18.0382 24.6968 18.6709C24.646 18.9867 24.7181 19.2883 24.8946 19.4989C25.0566 19.6923 25.2878 19.7728 25.5634 19.7728C26.0365 19.7728 26.2987 19.4646 26.2987 19.4646L26.275 19.6144C26.2661 19.6712 26.3095 19.7227 26.3664 19.7227H26.8446C26.9205 19.7227 26.985 19.6669 26.9969 19.5908L27.284 17.7461C27.2929 17.6892 27.2494 17.6377 27.1927 17.6377Z" fill="white"/>
<path fill-rule="evenodd" clip-rule="evenodd" d="M24.0055 17.6507C23.9449 18.0546 23.6409 18.0546 23.3467 18.0546H23.1794L23.2968 17.3004C23.3038 17.2548 23.3426 17.2213 23.388 17.2213H23.4648C23.665 17.2213 23.8541 17.2213 23.9516 17.337C24.01 17.4062 24.0276 17.5089 24.0055 17.6507ZM23.8776 16.5967H22.7684C22.6925 16.5967 22.628 16.6527 22.6161 16.7287L22.1677 19.6144C22.1588 19.6713 22.2023 19.7228 22.2589 19.7228H22.828C22.8811 19.7228 22.9263 19.6836 22.9346 19.6305L23.0619 18.8123C23.0736 18.7363 23.1382 18.6803 23.214 18.6803H23.5649C24.2956 18.6803 24.7173 18.3216 24.8274 17.6105C24.877 17.2997 24.8294 17.0553 24.686 16.8843C24.5282 16.6962 24.2486 16.5967 23.8776 16.5967Z" fill="white"/>
<path fill-rule="evenodd" clip-rule="evenodd" d="M22.1104 17.6377H21.5766C21.5255 17.6377 21.4778 17.6634 21.4492 17.7063L20.7127 18.8067L20.4007 17.7493C20.3811 17.6831 20.321 17.6377 20.253 17.6377H19.7283C19.6649 17.6377 19.6203 17.701 19.6408 17.7618L20.2285 19.5125L19.6757 20.304C19.6323 20.3661 19.6761 20.452 19.7512 20.452H20.2844C20.3349 20.452 20.3822 20.4269 20.4111 20.3848L22.1864 17.785C22.2288 17.7227 22.1851 17.6377 22.1104 17.6377Z" fill="white"/>
<path fill-rule="evenodd" clip-rule="evenodd" d="M18.5416 18.6866C18.4902 18.9945 18.2494 19.2013 17.9421 19.2013C17.7881 19.2013 17.6647 19.1509 17.5855 19.0557C17.5069 18.9614 17.4773 18.8269 17.5022 18.6773C17.55 18.372 17.7948 18.1587 18.0974 18.1587C18.2483 18.1587 18.3707 18.2095 18.4515 18.3056C18.5329 18.4024 18.5649 18.5376 18.5416 18.6866ZM19.2818 17.6377H18.7506C18.7052 17.6377 18.6664 17.6712 18.6593 17.7169L18.636 17.8675L18.5989 17.813C18.4838 17.6436 18.2274 17.5869 17.9714 17.5869C17.3847 17.5869 16.8834 18.0382 16.7859 18.6709C16.7352 18.9867 16.8072 19.2883 16.9837 19.4989C17.1457 19.6923 17.377 19.7728 17.6525 19.7728C18.1256 19.7728 18.3878 19.4646 18.3878 19.4646L18.3641 19.6144C18.3552 19.6712 18.3986 19.7227 18.4555 19.7227H18.9337C19.0096 19.7227 19.0741 19.6669 19.086 19.5908L19.3731 17.7461C19.382 17.6892 19.3385 17.6377 19.2818 17.6377Z" fill="white"/>
<path fill-rule="evenodd" clip-rule="evenodd" d="M16.0947 17.6507C16.034 18.0546 15.73 18.0546 15.4358 18.0546H15.2685L15.3859 17.3004C15.3929 17.2548 15.4317 17.2213 15.4772 17.2213H15.554C15.7542 17.2213 15.9432 17.2213 16.0407 17.337C16.0991 17.4062 16.1167 17.5089 16.0947 17.6507ZM15.9667 16.5967H14.8575C14.7816 16.5967 14.7171 16.6527 14.7052 16.7287L14.2568 19.6144C14.2479 19.6713 14.2912 19.7228 14.348 19.7228H14.8777C14.9535 19.7228 15.018 19.6668 15.0298 19.5909L15.151 18.8123C15.1627 18.7363 15.2273 18.6803 15.3031 18.6803H15.6541C16.3847 18.6803 16.8064 18.3216 16.9165 17.6105C16.9661 17.2997 16.9185 17.0553 16.7751 16.8843C16.6173 16.6962 16.3378 16.5967 15.9667 16.5967Z" fill="white"/>
<path fill-rule="evenodd" clip-rule="evenodd" d="M24.3882 6.77379C23.9727 6.29166 23.2216 6.08496 22.2607 6.08496H19.4719C19.2754 6.08496 19.1083 6.23051 19.0775 6.42786L17.9163 13.9248C17.8933 14.0727 18.0057 14.2066 18.1529 14.2066H19.8746L20.307 11.4146L20.2935 11.5021C20.3243 11.3047 20.4901 11.1592 20.6865 11.1592H21.5046C23.1118 11.1592 24.3703 10.4946 24.7379 8.57217C24.7489 8.51531 24.7583 8.45997 24.7665 8.4059C24.7201 8.38088 24.7201 8.38088 24.7665 8.4059C24.8759 7.69534 24.7657 7.21169 24.3882 6.77379Z" fill="white"/>
<path fill-rule="evenodd" clip-rule="evenodd" d="M25.0037 8.63037C24.9953 8.68448 24.9861 8.73934 24.9752 8.79596C24.6081 10.7103 23.3514 11.3724 21.7464 11.3724H20.9292C20.7331 11.3724 20.5676 11.5173 20.5371 11.7139L19.9999 15.1711C19.9799 15.2999 20.078 15.4167 20.2064 15.4167H21.6557C21.8272 15.4167 21.9732 15.2898 22 15.118L22.0141 15.043L22.2873 13.2854L22.3049 13.1883C22.3317 13.0164 22.4777 12.8896 22.6492 12.8896H22.8661C24.27 12.8896 25.3694 12.3105 25.6906 10.6358C25.8247 9.93594 25.7553 9.35161 25.4006 8.94116C25.293 8.81685 25.1594 8.71417 25.0037 8.63037Z" fill="white"/>
<path fill-rule="evenodd" clip-rule="evenodd" d="M24.3752 8.22714C24.3192 8.21053 24.2614 8.19543 24.2019 8.18209C24.1424 8.16876 24.081 8.15693 24.018 8.14661C23.7974 8.11037 23.5565 8.09326 23.2977 8.09326H21.1147C21.0609 8.09326 21.0098 8.10559 20.9642 8.12799C20.8633 8.17706 20.7887 8.2737 20.7704 8.39222L20.3064 11.3791L20.293 11.4662C20.3235 11.2696 20.489 11.1247 20.6851 11.1247H21.5023C23.1073 11.1247 24.364 10.4628 24.7311 8.54825C24.742 8.49163 24.7512 8.43677 24.7596 8.38266C24.6667 8.33283 24.5661 8.2898 24.4577 8.25331C24.4307 8.24425 24.4032 8.23545 24.3752 8.22714Z" fill="white"/>
</svg>
