<svg width="43" height="27" viewBox="0 0 43 27" fill="none" xmlns="http://www.w3.org/2000/svg">
<path fill-rule="evenodd" clip-rule="evenodd" d="M0.0332031 1.46793C0.0332031 0.796904 0.577177 0.25293 1.2482 0.25293H41.3296C42.0006 0.25293 42.5446 0.796904 42.5446 1.46793V25.547C42.5446 26.218 42.0006 26.762 41.3296 26.762H1.2482C0.577178 26.762 0.0332031 26.218 0.0332031 25.547V1.46793Z" fill="#0066B2"/>
<path fill-rule="evenodd" clip-rule="evenodd" d="M31.2371 15.8651C31.2371 15.6753 31.3903 15.5215 31.5792 15.5215C31.7684 15.5215 31.9213 15.6753 31.9213 15.8651C31.9213 16.0547 31.7684 16.2087 31.5792 16.2087C31.3903 16.2087 31.2371 16.0547 31.2371 15.8651ZM31.5792 16.126C31.7232 16.126 31.8394 16.0092 31.8394 15.8651C31.8394 15.7205 31.7232 15.604 31.5792 15.604C31.4358 15.604 31.3194 15.7205 31.3194 15.8651C31.3194 16.0092 31.4358 16.126 31.5792 16.126ZM31.5331 16.0157H31.4631V15.714H31.59C31.6165 15.714 31.6433 15.7143 31.6667 15.7291C31.691 15.7462 31.7048 15.7747 31.7048 15.8046C31.7048 15.839 31.6852 15.871 31.653 15.8827L31.7079 16.0157H31.6301L31.5845 15.8962H31.5331V16.0157ZM31.5331 15.8446H31.5716C31.5862 15.8446 31.6018 15.8459 31.6145 15.839C31.6261 15.8315 31.6321 15.8174 31.6321 15.8039C31.6321 15.7928 31.625 15.7794 31.6152 15.7735C31.6028 15.7663 31.5834 15.7678 31.5703 15.7678H31.5331V15.8446Z" fill="white"/>
<path fill-rule="evenodd" clip-rule="evenodd" d="M29.5485 16.2303H31.067L29.7431 9.89014H28.4138C27.7998 9.89014 27.65 10.3624 27.65 10.3624L25.1838 16.2303H26.9075L27.2521 15.2887H29.3547L29.5485 16.2303ZM27.7288 13.9878L28.5976 11.6146L29.0867 13.9878H27.7288Z" fill="white"/>
<path fill-rule="evenodd" clip-rule="evenodd" d="M25.3127 11.4148L25.5489 10.0533C25.5489 10.0533 24.8204 9.77686 24.0614 9.77686C23.2407 9.77686 21.2917 10.1349 21.2917 11.8758C21.2917 13.514 23.5794 13.5345 23.5794 14.3942C23.5794 15.2544 21.5276 15.1008 20.8501 14.5582L20.6045 15.9815C20.6045 15.9815 21.3427 16.3398 22.4714 16.3398C23.5996 16.3398 25.3027 15.7563 25.3027 14.1692C25.3027 12.5207 22.9945 12.3669 22.9945 11.6503C22.9945 10.9334 24.6053 11.0255 25.3127 11.4148Z" fill="white"/>
<path fill-rule="evenodd" clip-rule="evenodd" d="M19.5854 16.2303H17.9316L18.9651 9.89014H20.6194L19.5854 16.2303Z" fill="white"/>
<path fill-rule="evenodd" clip-rule="evenodd" d="M14.9637 14.251L16.5402 9.89014H18.3203L15.6889 16.2303H13.9659L12.5294 10.7221C11.5964 10.1628 10.7993 9.99736 10.7991 9.99736C10.7993 9.99736 12.0522 10.2565 13.2539 11.2272C14.4028 12.1556 14.7769 13.3121 14.7769 13.3121V13.3118L14.9637 14.251Z" fill="white"/>
<path fill-rule="evenodd" clip-rule="evenodd" d="M14.7769 13.3121L14.2204 10.461C14.2204 10.461 14.1535 9.89014 13.436 9.89014H10.8296L10.7991 9.99736C10.7993 9.99736 12.0522 10.2565 13.2539 11.2272C14.4028 12.1556 14.7769 13.3121 14.7769 13.3121Z" fill="#F9A533"/>
</svg>
