<svg width="25" height="27" viewBox="0 0 25 27" fill="none" xmlns="http://www.w3.org/2000/svg">
<path fill-rule="evenodd" clip-rule="evenodd" d="M24.9985 22.3936L23.0459 7.28846C23.0064 6.91036 22.6548 6.60875 22.2652 6.60875H17.1867V4.53139C17.1867 2.03912 15.0773 0 12.4993 0C9.92118 0 7.81184 2.03912 7.81184 4.53139V6.60875H2.73332C2.3422 6.60875 1.99065 6.91037 1.95259 7.28846L0 22.3936V22.4686C0 24.9609 2.10933 27 4.68741 27H20.3126C22.8907 27 25 24.9609 25 22.4686C24.9985 22.4318 24.9985 22.3936 24.9985 22.3936H24.9985ZM9.37481 4.53265C9.37481 2.87163 10.781 1.51221 12.4992 1.51221C14.2175 1.51221 15.6237 2.87163 15.6237 4.53265V6.60861H9.37481V4.53265ZM4.68741 25.4901H20.3111L20.3112 25.4901C22.0309 25.4901 23.3976 24.1674 23.4371 22.5064L21.5621 8.11908H17.1867L17.1882 11.1764C17.6189 11.4412 17.9309 11.9326 17.9309 12.4607C17.9309 13.292 17.2278 13.9717 16.3679 13.9717C15.508 13.9717 14.8049 13.292 14.8049 12.4607C14.8049 11.8943 15.1169 11.4044 15.6252 11.1396V8.11912H9.37485V11.1764C9.80552 11.4412 10.1175 11.9326 10.1175 12.4608C10.1175 13.292 9.41441 13.9717 8.55455 13.9717C7.6947 13.9717 6.99159 13.292 6.99159 12.4608C6.99159 11.8943 7.30358 11.4044 7.81188 11.1396V8.11916H3.43647L1.56297 22.5065C1.60103 24.169 2.96919 25.4901 4.68741 25.4901ZM8.94432 12.4622C8.94432 12.6888 8.78759 12.8403 8.5532 12.8403C8.31882 12.8403 8.16209 12.6888 8.16209 12.4622C8.16209 12.2356 8.31882 12.0841 8.5532 12.0841C8.78904 12.0841 8.94432 12.2356 8.94432 12.4622ZM16.3665 12.8403C16.6009 12.8403 16.7577 12.6888 16.7577 12.4622C16.7577 12.2356 16.6009 12.0841 16.3665 12.0841C16.1322 12.0841 15.9754 12.2356 15.9754 12.4622C15.9754 12.6888 16.1322 12.8403 16.3665 12.8403Z" fill="white"/>
</svg>
